<svg width="128" height="128" viewBox="0 0 128 128" fill="none" xmlns="http://www.w3.org/2000/svg">
<g clip-path="url(#clip0_117_241)">
<rect width="128" height="128" rx="24" fill="url(#paint0_linear_117_241)"/>
<path d="M42.0344 85.9483V41.0517C42.0344 41.0517 42.0344 42.2409 42.0344 44.6194C42.0344 46.9978 42.0344 50.0845 42.0344 53.8793V73.1207C42.0344 76.9155 42.0344 80.0021 42.0344 82.3806C42.0344 84.759 42.0344 85.9483 42.0344 85.9483ZM42.0344 92.3621C40.2706 92.3621 38.7607 91.734 37.5047 90.478C36.2486 89.222 35.6206 87.7121 35.6206 85.9483V41.0517C35.6206 39.2879 36.2486 37.778 37.5047 36.522C38.7607 35.2659 40.2706 34.6379 42.0344 34.6379H86.9309C88.6947 34.6379 90.2047 35.2659 91.4607 36.522C92.7167 37.778 93.3447 39.2879 93.3447 41.0517V49.069H86.9309V41.0517H42.0344V85.9483H86.9309V77.931H93.3447V85.9483C93.3447 87.7121 92.7167 89.222 91.4607 90.478C90.2047 91.734 88.6947 92.3621 86.9309 92.3621H42.0344ZM67.6896 79.5345C65.9258 79.5345 64.4159 78.9065 63.1598 77.6504C61.9038 76.3944 61.2758 74.8845 61.2758 73.1207V53.8793C61.2758 52.1155 61.9038 50.6056 63.1598 49.3496C64.4159 48.0935 65.9258 47.4655 67.6896 47.4655H90.1378C91.9016 47.4655 93.4116 48.0935 94.6676 49.3496C95.9236 50.6056 96.5516 52.1155 96.5516 53.8793V73.1207C96.5516 74.8845 95.9236 76.3944 94.6676 77.6504C93.4116 78.9065 91.9016 79.5345 90.1378 79.5345H67.6896ZM90.1378 73.1207V53.8793H67.6896V73.1207H90.1378ZM77.3103 68.3103C77.3103 68.3103 77.6443 68.3103 78.3124 68.3103C78.9805 68.3103 79.7822 67.8427 80.7176 66.9073C81.6529 65.972 82.1206 64.8362 82.1206 63.5C82.1206 62.1638 81.6529 61.028 80.7176 60.0927C79.7822 59.1573 78.6465 58.6896 77.3103 58.6896C75.9741 58.6896 74.8383 59.1573 73.9029 60.0927C72.9676 61.028 72.4999 62.1638 72.4999 63.5C72.4999 64.8362 72.9676 65.972 73.9029 66.9073C74.8383 67.8427 75.9741 68.3103 77.3103 68.3103Z" fill="white"/>
</g>
<defs>
<linearGradient id="paint0_linear_117_241" x1="1.3487e-06" y1="128" x2="128" y2="1.3487e-06" gradientUnits="userSpaceOnUse">
<stop stop-color="#2563EB"/>
<stop offset="1" stop-color="#6366F1"/>
</linearGradient>
<clipPath id="clip0_117_241">
<rect width="128" height="128" rx="24" fill="white"/>
</clipPath>
</defs>
</svg>
