<svg width="328" height="336" viewBox="0 0 328 336" fill="none" xmlns="http://www.w3.org/2000/svg">
<g filter="url(#filter0_i_136_248)">
<rect x="84" y="72" width="160" height="160" rx="80" fill="white"/>
<path d="M119.098 157.727V130.455H120.845V157.727H119.098ZM123.732 139.457C123.647 138.597 123.281 137.93 122.635 137.454C121.989 136.978 121.112 136.74 120.004 136.74C119.251 136.74 118.615 136.847 118.097 137.06C117.578 137.266 117.18 137.553 116.903 137.923C116.634 138.292 116.499 138.711 116.499 139.18C116.484 139.57 116.566 139.911 116.744 140.202C116.928 140.494 117.18 140.746 117.5 140.959C117.82 141.165 118.189 141.346 118.608 141.502C119.027 141.651 119.474 141.779 119.95 141.886L121.911 142.354C122.862 142.567 123.736 142.852 124.531 143.207C125.327 143.562 126.016 143.999 126.598 144.517C127.18 145.036 127.631 145.646 127.951 146.349C128.278 147.053 128.445 147.859 128.452 148.768C128.445 150.103 128.104 151.261 127.429 152.241C126.761 153.214 125.795 153.97 124.531 154.51C123.274 155.043 121.758 155.309 119.982 155.309C118.221 155.309 116.687 155.039 115.38 154.499C114.08 153.96 113.065 153.161 112.333 152.102C111.609 151.037 111.229 149.719 111.193 148.15H115.657C115.707 148.881 115.916 149.492 116.286 149.982C116.662 150.465 117.163 150.831 117.788 151.08C118.42 151.321 119.134 151.442 119.929 151.442C120.71 151.442 121.388 151.328 121.964 151.101C122.546 150.874 122.997 150.558 123.317 150.153C123.636 149.748 123.796 149.283 123.796 148.757C123.796 148.267 123.651 147.855 123.359 147.521C123.075 147.187 122.656 146.903 122.102 146.669C121.555 146.435 120.884 146.222 120.089 146.03L117.713 145.433C115.874 144.986 114.421 144.286 113.356 143.335C112.29 142.383 111.761 141.101 111.768 139.489C111.761 138.168 112.113 137.013 112.823 136.026C113.54 135.039 114.524 134.268 115.774 133.714C117.024 133.161 118.445 132.884 120.036 132.884C121.655 132.884 123.068 133.161 124.276 133.714C125.49 134.268 126.435 135.039 127.109 136.026C127.784 137.013 128.132 138.157 128.153 139.457H123.732ZM131.427 155V151.676L139.193 144.485C139.854 143.846 140.407 143.271 140.855 142.759C141.309 142.248 141.654 141.747 141.888 141.257C142.123 140.76 142.24 140.224 142.24 139.648C142.24 139.009 142.094 138.459 141.803 137.997C141.512 137.528 141.114 137.17 140.61 136.921C140.106 136.665 139.534 136.538 138.895 136.538C138.227 136.538 137.645 136.673 137.148 136.942C136.65 137.212 136.267 137.599 135.997 138.104C135.727 138.608 135.592 139.208 135.592 139.904H131.214C131.214 138.477 131.537 137.237 132.183 136.186C132.829 135.135 133.735 134.322 134.9 133.746C136.064 133.171 137.407 132.884 138.927 132.884C140.489 132.884 141.849 133.161 143.007 133.714C144.172 134.261 145.077 135.021 145.724 135.994C146.37 136.967 146.693 138.082 146.693 139.339C146.693 140.163 146.53 140.977 146.203 141.779C145.883 142.582 145.312 143.473 144.488 144.453C143.664 145.426 142.503 146.594 141.004 147.958L137.819 151.08V151.229H146.981V155H131.427ZM155.298 152.017L155.181 153.189C155.089 154.126 154.911 155.06 154.648 155.991C154.393 156.928 154.123 157.777 153.839 158.537C153.562 159.297 153.338 159.893 153.168 160.327H150.227C150.334 159.908 150.479 159.322 150.664 158.569C150.849 157.823 151.023 156.985 151.186 156.055C151.349 155.124 151.452 154.176 151.495 153.21L151.548 152.017H155.298ZM159.075 151.165V147.532L168.184 133.182H171.316V138.21H169.462L163.72 147.298V147.468H176.664V151.165H159.075ZM169.547 155V150.057L169.632 148.448V133.182H173.958V155H169.547ZM187.706 155.298C186.2 155.298 184.858 155.021 183.679 154.467C182.507 153.913 181.577 153.15 180.888 152.177C180.199 151.204 179.84 150.089 179.812 148.832H184.286C184.336 149.677 184.691 150.362 185.352 150.888C186.012 151.413 186.797 151.676 187.706 151.676C188.43 151.676 189.07 151.516 189.624 151.197C190.185 150.87 190.621 150.419 190.934 149.844C191.254 149.261 191.413 148.594 191.413 147.841C191.413 147.074 191.25 146.399 190.923 145.817C190.604 145.234 190.16 144.78 189.592 144.453C189.023 144.126 188.374 143.96 187.642 143.952C187.003 143.952 186.381 144.084 185.778 144.347C185.181 144.609 184.716 144.968 184.382 145.423L180.281 144.688L181.314 133.182H194.652V136.953H185.117L184.553 142.418H184.68C185.064 141.879 185.643 141.431 186.417 141.076C187.191 140.721 188.058 140.543 189.016 140.543C190.33 140.543 191.502 140.852 192.532 141.47C193.562 142.088 194.375 142.937 194.972 144.016C195.568 145.089 195.863 146.325 195.856 147.724C195.863 149.194 195.522 150.501 194.833 151.644C194.151 152.781 193.196 153.675 191.967 154.329C190.746 154.975 189.325 155.298 187.706 155.298ZM207.628 155.479C205.795 155.472 204.219 155.021 202.898 154.126C201.584 153.232 200.572 151.935 199.862 150.238C199.158 148.54 198.81 146.499 198.817 144.112C198.817 141.733 199.169 139.705 199.872 138.029C200.582 136.353 201.594 135.078 202.908 134.205C204.229 133.324 205.803 132.884 207.628 132.884C209.453 132.884 211.023 133.324 212.337 134.205C213.658 135.085 214.673 136.364 215.384 138.04C216.094 139.709 216.445 141.733 216.438 144.112C216.438 146.506 216.083 148.551 215.373 150.249C214.67 151.946 213.661 153.242 212.347 154.137C211.033 155.032 209.46 155.479 207.628 155.479ZM207.628 151.655C208.878 151.655 209.876 151.026 210.621 149.769C211.367 148.512 211.737 146.626 211.729 144.112C211.729 142.457 211.559 141.08 211.218 139.979C210.884 138.878 210.408 138.05 209.79 137.496C209.18 136.942 208.459 136.665 207.628 136.665C206.385 136.665 205.391 137.287 204.645 138.53C203.899 139.773 203.523 141.634 203.516 144.112C203.516 145.788 203.683 147.188 204.016 148.31C204.357 149.425 204.837 150.263 205.455 150.824C206.072 151.378 206.797 151.655 207.628 151.655Z" fill="#111827"/>
<path d="M148.719 167.565C148.673 167.162 148.486 166.849 148.156 166.628C147.827 166.403 147.412 166.291 146.912 166.291C146.554 166.291 146.244 166.348 145.983 166.462C145.722 166.572 145.518 166.726 145.374 166.922C145.232 167.115 145.161 167.335 145.161 167.582C145.161 167.79 145.209 167.969 145.305 168.119C145.405 168.27 145.534 168.396 145.693 168.499C145.855 168.598 146.028 168.682 146.213 168.75C146.398 168.815 146.575 168.869 146.746 168.912L147.598 169.134C147.876 169.202 148.162 169.294 148.455 169.411C148.747 169.527 149.018 169.68 149.268 169.871C149.518 170.061 149.72 170.297 149.874 170.578C150.03 170.859 150.108 171.196 150.108 171.588C150.108 172.082 149.98 172.521 149.724 172.905C149.472 173.288 149.104 173.591 148.621 173.812C148.141 174.034 147.56 174.145 146.878 174.145C146.224 174.145 145.659 174.041 145.182 173.834C144.705 173.626 144.331 173.332 144.061 172.952C143.791 172.568 143.642 172.114 143.614 171.588H144.935C144.96 171.903 145.063 172.166 145.241 172.376C145.423 172.584 145.655 172.739 145.936 172.841C146.22 172.94 146.531 172.99 146.869 172.99C147.241 172.99 147.572 172.932 147.862 172.815C148.155 172.696 148.385 172.531 148.553 172.321C148.72 172.108 148.804 171.859 148.804 171.575C148.804 171.317 148.73 171.105 148.582 170.94C148.438 170.776 148.24 170.639 147.99 170.531C147.743 170.423 147.463 170.328 147.151 170.246L146.119 169.964C145.42 169.774 144.866 169.494 144.457 169.125C144.051 168.756 143.848 168.267 143.848 167.659C143.848 167.156 143.984 166.717 144.257 166.342C144.53 165.967 144.899 165.676 145.365 165.469C145.831 165.259 146.357 165.153 146.942 165.153C147.533 165.153 148.054 165.257 148.506 165.464C148.96 165.672 149.318 165.957 149.58 166.321C149.841 166.682 149.977 167.097 149.989 167.565H148.719ZM152.281 174V165.273H155.392C156.071 165.273 156.634 165.396 157.08 165.643C157.526 165.891 157.86 166.229 158.081 166.658C158.303 167.084 158.414 167.564 158.414 168.098C158.414 168.635 158.301 169.118 158.077 169.547C157.855 169.973 157.52 170.311 157.071 170.561C156.625 170.808 156.064 170.932 155.388 170.932H153.249V169.815H155.269C155.698 169.815 156.046 169.741 156.313 169.594C156.58 169.443 156.776 169.239 156.901 168.98C157.026 168.722 157.088 168.428 157.088 168.098C157.088 167.768 157.026 167.476 156.901 167.22C156.776 166.964 156.578 166.764 156.308 166.619C156.041 166.474 155.689 166.402 155.252 166.402H153.598V174H152.281ZM160.557 174V165.273H166.029V166.406H161.874V169.065H165.743V170.195H161.874V172.866H166.08V174H160.557ZM175.432 165.273V174H174.222L169.785 167.599H169.704V174H168.388V165.273H169.606L174.047 171.682H174.128V165.273H175.432ZM177.522 166.406V165.273H184.276V166.406H181.553V174H180.241V166.406H177.522Z" fill="#9CA3AF"/>
</g>
<g filter="url(#filter1_dd_136_248)">
<mask id="path-5-inside-1_136_248" fill="white">
<path d="M198.03 32C198.03 18.7452 208.775 8 222.03 8H283.03C296.285 8 307.03 18.7452 307.03 32V34C307.03 47.2548 296.285 58 283.03 58H222.03C208.775 58 198.03 47.2548 198.03 34V32Z"/>
</mask>
<path d="M198.03 32C198.03 18.7452 208.775 8 222.03 8H283.03C296.285 8 307.03 18.7452 307.03 32V34C307.03 47.2548 296.285 58 283.03 58H222.03C208.775 58 198.03 47.2548 198.03 34V32Z" fill="white"/>
<path d="M222.03 8V9H283.03V8V7H222.03V8ZM307.03 32H306.03V34H307.03H308.03V32H307.03ZM283.03 58V57H222.03V58V59H283.03V58ZM198.03 34H199.03V32H198.03H197.03V34H198.03ZM222.03 58V57C209.327 57 199.03 46.7025 199.03 34H198.03H197.03C197.03 47.8071 208.223 59 222.03 59V58ZM307.03 34H306.03C306.03 46.7025 295.733 57 283.03 57V58V59C296.837 59 308.03 47.8071 308.03 34H307.03ZM283.03 8V9C295.733 9 306.03 19.2975 306.03 32H307.03H308.03C308.03 18.1929 296.837 7 283.03 7V8ZM222.03 8V7C208.223 7 197.03 18.1929 197.03 32H198.03H199.03C199.03 19.2975 209.327 9 222.03 9V8Z" fill="#F3F4F6" mask="url(#path-5-inside-1_136_248)"/>
<rect x="211.03" y="21" width="24" height="24" rx="12" fill="#A7F3D0"/>
<path d="M225.251 36.3308V35.2205H226.694L223.807 32.3614L221.587 34.5821L217.479 30.4461L218.256 29.6689L221.587 32.9999L223.807 30.7792L227.471 34.4433V32.9999H228.582V36.3308H225.251Z" fill="#059669"/>
<path d="M247.032 32.2635V33.4638H243.715V32.2635H247.032ZM251.471 29.2273V36.5H249.933V30.6868H249.891L248.225 31.7308V30.3672L250.026 29.2273H251.471ZM253.2 36.5V35.392L255.788 32.995C256.009 32.782 256.193 32.5902 256.342 32.4197C256.494 32.2493 256.609 32.0824 256.687 31.919C256.765 31.7533 256.804 31.5746 256.804 31.3828C256.804 31.1697 256.755 30.9863 256.658 30.8324C256.561 30.6761 256.429 30.5566 256.261 30.4737C256.093 30.3885 255.902 30.3459 255.689 30.3459C255.466 30.3459 255.272 30.3909 255.107 30.4808C254.941 30.5708 254.813 30.6998 254.723 30.8679C254.633 31.036 254.588 31.236 254.588 31.468H253.129C253.129 30.9922 253.236 30.5791 253.452 30.2287C253.667 29.8783 253.969 29.6072 254.357 29.4155C254.746 29.2237 255.193 29.1278 255.7 29.1278C256.22 29.1278 256.674 29.2202 257.06 29.4048C257.448 29.5871 257.75 29.8404 257.965 30.1648C258.181 30.4891 258.288 30.8608 258.288 31.2798C258.288 31.5545 258.234 31.8255 258.125 32.093C258.018 32.3606 257.828 32.6577 257.553 32.9844C257.279 33.3087 256.892 33.6982 256.392 34.1527L255.33 35.1932V35.2429H258.384V36.5H253.2ZM263.479 35.1364V34.7528C263.479 34.4616 263.541 34.1941 263.664 33.9503C263.789 33.7041 263.97 33.5076 264.207 33.3608C264.446 33.2116 264.738 33.1371 265.081 33.1371C265.429 33.1371 265.721 33.2105 265.958 33.3572C266.197 33.504 266.377 33.7005 266.498 33.9467C266.621 34.1906 266.682 34.4593 266.682 34.7528V35.1364C266.682 35.4276 266.621 35.6963 266.498 35.9425C266.375 36.1863 266.194 36.3816 265.954 36.5284C265.715 36.6776 265.424 36.7521 265.081 36.7521C264.733 36.7521 264.44 36.6776 264.204 36.5284C263.967 36.3816 263.787 36.1863 263.664 35.9425C263.541 35.6963 263.479 35.4276 263.479 35.1364ZM264.513 34.7528V35.1364C264.513 35.3045 264.553 35.4631 264.633 35.6122C264.716 35.7614 264.865 35.8359 265.081 35.8359C265.296 35.8359 265.443 35.7625 265.521 35.6158C265.602 35.469 265.642 35.3092 265.642 35.1364V34.7528C265.642 34.58 265.604 34.419 265.528 34.2699C265.452 34.1207 265.303 34.0462 265.081 34.0462C264.868 34.0462 264.72 34.1207 264.637 34.2699C264.554 34.419 264.513 34.58 264.513 34.7528ZM259.747 30.9744V30.5909C259.747 30.2973 259.81 30.0286 259.935 29.7848C260.061 29.5386 260.242 29.3421 260.479 29.1953C260.718 29.0485 261.006 28.9751 261.345 28.9751C261.695 28.9751 261.989 29.0485 262.226 29.1953C262.462 29.3421 262.642 29.5386 262.765 29.7848C262.889 30.0286 262.95 30.2973 262.95 30.5909V30.9744C262.95 31.268 262.887 31.5367 262.762 31.7805C262.639 32.0244 262.458 32.2197 262.219 32.3665C261.982 32.5109 261.691 32.5831 261.345 32.5831C260.999 32.5831 260.707 32.5097 260.468 32.3629C260.231 32.2138 260.051 32.0185 259.928 31.777C259.807 31.5331 259.747 31.2656 259.747 30.9744ZM260.787 30.5909V30.9744C260.787 31.1473 260.828 31.3071 260.908 31.4538C260.991 31.6006 261.137 31.674 261.345 31.674C261.563 31.674 261.711 31.6006 261.789 31.4538C261.869 31.3071 261.91 31.1473 261.91 30.9744V30.5909C261.91 30.4181 261.872 30.2571 261.796 30.108C261.72 29.9588 261.57 29.8842 261.345 29.8842C261.134 29.8842 260.989 29.96 260.908 30.1115C260.828 30.263 260.787 30.4228 260.787 30.5909ZM260.216 36.5L265.216 29.2273H266.146L261.146 36.5H260.216ZM270.449 36.5V29.2273H275.265V30.495H271.987V32.228H274.945V33.4957H271.987V36.5H270.449ZM278.335 36.6065C277.783 36.6065 277.306 36.4893 276.903 36.255C276.503 36.0182 276.194 35.6892 275.977 35.2678C275.759 34.844 275.65 34.3527 275.65 33.794C275.65 33.2306 275.759 32.7382 275.977 32.3168C276.194 31.893 276.503 31.5639 276.903 31.3295C277.306 31.0928 277.783 30.9744 278.335 30.9744C278.886 30.9744 279.362 31.0928 279.762 31.3295C280.165 31.5639 280.475 31.893 280.692 32.3168C280.91 32.7382 281.019 33.2306 281.019 33.794C281.019 34.3527 280.91 34.844 280.692 35.2678C280.475 35.6892 280.165 36.0182 279.762 36.255C279.362 36.4893 278.886 36.6065 278.335 36.6065ZM278.342 35.4347C278.593 35.4347 278.802 35.3636 278.97 35.2216C279.138 35.0772 279.265 34.8807 279.35 34.6321C279.438 34.3835 279.482 34.1006 279.482 33.7834C279.482 33.4661 279.438 33.1832 279.35 32.9347C279.265 32.6861 279.138 32.4896 278.97 32.3452C278.802 32.2008 278.593 32.1286 278.342 32.1286C278.088 32.1286 277.875 32.2008 277.702 32.3452C277.532 32.4896 277.403 32.6861 277.315 32.9347C277.23 33.1832 277.188 33.4661 277.188 33.7834C277.188 34.1006 277.23 34.3835 277.315 34.6321C277.403 34.8807 277.532 35.0772 277.702 35.2216C277.875 35.3636 278.088 35.4347 278.342 35.4347ZM284.467 36.6065C283.916 36.6065 283.439 36.4893 283.036 36.255C282.636 36.0182 282.327 35.6892 282.109 35.2678C281.892 34.844 281.783 34.3527 281.783 33.794C281.783 33.2306 281.892 32.7382 282.109 32.3168C282.327 31.893 282.636 31.5639 283.036 31.3295C283.439 31.0928 283.916 30.9744 284.467 30.9744C285.019 30.9744 285.495 31.0928 285.895 31.3295C286.297 31.5639 286.608 31.893 286.825 32.3168C287.043 32.7382 287.152 33.2306 287.152 33.794C287.152 34.3527 287.043 34.844 286.825 35.2678C286.608 35.6892 286.297 36.0182 285.895 36.255C285.495 36.4893 285.019 36.6065 284.467 36.6065ZM284.474 35.4347C284.725 35.4347 284.935 35.3636 285.103 35.2216C285.271 35.0772 285.398 34.8807 285.483 34.6321C285.571 34.3835 285.614 34.1006 285.614 33.7834C285.614 33.4661 285.571 33.1832 285.483 32.9347C285.398 32.6861 285.271 32.4896 285.103 32.3452C284.935 32.2008 284.725 32.1286 284.474 32.1286C284.221 32.1286 284.008 32.2008 283.835 32.3452C283.665 32.4896 283.536 32.6861 283.448 32.9347C283.363 33.1832 283.32 33.4661 283.32 33.7834C283.32 34.1006 283.363 34.3835 283.448 34.6321C283.536 34.8807 283.665 35.0772 283.835 35.2216C284.008 35.3636 284.221 35.4347 284.474 35.4347ZM290.146 36.5888C289.731 36.5888 289.356 36.4822 289.02 36.2692C288.686 36.0537 288.421 35.7377 288.224 35.321C288.03 34.902 287.933 34.3883 287.933 33.7798C287.933 33.1548 288.034 32.6352 288.235 32.2209C288.436 31.8042 288.704 31.4929 289.038 31.2869C289.374 31.0786 289.742 30.9744 290.142 30.9744C290.447 30.9744 290.702 31.0265 290.906 31.1307C291.112 31.2325 291.277 31.3603 291.403 31.5142C291.531 31.6657 291.628 31.8149 291.694 31.9616H291.74V29.2273H293.249V36.5H291.758V35.6264H291.694C291.623 35.7779 291.522 35.9283 291.392 36.0774C291.264 36.2242 291.097 36.3461 290.891 36.4432C290.688 36.5402 290.439 36.5888 290.146 36.5888ZM290.625 35.3849C290.869 35.3849 291.075 35.3187 291.243 35.1861C291.413 35.0511 291.544 34.8629 291.634 34.6214C291.726 34.38 291.772 34.0971 291.772 33.7727C291.772 33.4484 291.727 33.1667 291.637 32.9276C291.547 32.6884 291.417 32.5038 291.246 32.3736C291.076 32.2434 290.869 32.1783 290.625 32.1783C290.376 32.1783 290.167 32.2457 289.996 32.3807C289.826 32.5156 289.697 32.7027 289.609 32.9418C289.522 33.1809 289.478 33.4579 289.478 33.7727C289.478 34.09 289.522 34.3705 289.609 34.6143C289.699 34.8558 289.828 35.0452 289.996 35.1825C290.167 35.3175 290.376 35.3849 290.625 35.3849Z" fill="#374151"/>
</g>
<g filter="url(#filter2_dd_136_248)">
<mask id="path-10-inside-2_136_248" fill="white">
<path d="M20 270C20 256.745 30.7452 246 44 246H125C138.255 246 149 256.745 149 270V272C149 285.255 138.255 296 125 296H44C30.7452 296 20 285.255 20 272V270Z"/>
</mask>
<path d="M20 270C20 256.745 30.7452 246 44 246H125C138.255 246 149 256.745 149 270V272C149 285.255 138.255 296 125 296H44C30.7452 296 20 285.255 20 272V270Z" fill="white"/>
<path d="M44 246V247H125V246V245H44V246ZM149 270H148V272H149H150V270H149ZM125 296V295H44V296V297H125V296ZM20 272H21V270H20H19V272H20ZM44 296V295C31.2975 295 21 284.703 21 272H20H19C19 285.807 30.1929 297 44 297V296ZM149 272H148C148 284.703 137.703 295 125 295V296V297C138.807 297 150 285.807 150 272H149ZM125 246V247C137.703 247 148 257.297 148 270H149H150C150 256.193 138.807 245 125 245V246ZM44 246V245C30.1929 245 19 256.193 19 270H20H21C21 257.297 31.2975 247 44 247V246Z" fill="#F3F4F6" mask="url(#path-10-inside-2_136_248)"/>
<rect x="33" y="259" width="24" height="24" rx="12" fill="#BFDBFE"/>
<path d="M40 275.444C39.6945 275.444 39.4329 275.336 39.2153 275.118C38.9977 274.9 38.8889 274.639 38.8889 274.333C38.8889 274.028 38.9977 273.766 39.2153 273.549C39.4329 273.331 39.6945 273.222 40 273.222C40.0556 273.222 40.1042 273.222 40.1459 273.222C40.1875 273.222 40.2315 273.231 40.2778 273.25L42.8056 270.722C42.7871 270.676 42.7778 270.632 42.7778 270.59C42.7778 270.549 42.7778 270.5 42.7778 270.444C42.7778 270.139 42.8866 269.877 43.1042 269.66C43.3218 269.442 43.5834 269.333 43.8889 269.333C44.1945 269.333 44.456 269.442 44.6736 269.66C44.8912 269.877 45 270.139 45 270.444C45 270.463 44.9908 270.555 44.9722 270.722L46.3889 272.139C46.4352 272.12 46.4792 272.111 46.5209 272.111C46.5625 272.111 46.6111 272.111 46.6667 272.111C46.7222 272.111 46.7709 272.111 46.8125 272.111C46.8542 272.111 46.8982 272.12 46.9445 272.139L48.9167 270.167C48.8982 270.12 48.8889 270.076 48.8889 270.035C48.8889 269.993 48.8889 269.944 48.8889 269.889C48.8889 269.583 48.9977 269.322 49.2153 269.104C49.4329 268.886 49.6945 268.778 50 268.778C50.3056 268.778 50.5672 268.886 50.7847 269.104C51.0023 269.322 51.1111 269.583 51.1111 269.889C51.1111 270.194 51.0023 270.456 50.7847 270.674C50.5672 270.891 50.3056 271 50 271C49.9445 271 49.8959 271 49.8542 271C49.8125 271 49.7685 270.991 49.7222 270.972L47.75 272.944C47.7685 272.991 47.7778 273.035 47.7778 273.076C47.7778 273.118 47.7778 273.167 47.7778 273.222C47.7778 273.528 47.669 273.789 47.4514 274.007C47.2338 274.224 46.9722 274.333 46.6667 274.333C46.3611 274.333 46.0996 274.224 45.882 274.007C45.6644 273.789 45.5556 273.528 45.5556 273.222C45.5556 273.167 45.5556 273.118 45.5556 273.076C45.5556 273.035 45.5648 272.991 45.5834 272.944L44.1667 271.528C44.1204 271.546 44.0764 271.555 44.0347 271.555C43.9931 271.555 43.9445 271.555 43.8889 271.555C43.8704 271.555 43.7778 271.546 43.6111 271.528L41.0834 274.055C41.1019 274.102 41.1111 274.146 41.1111 274.187C41.1111 274.229 41.1111 274.278 41.1111 274.333C41.1111 274.639 41.0023 274.9 40.7847 275.118C40.5672 275.336 40.3056 275.444 40 275.444ZM40.5556 269.875L40.2084 269.125L39.4584 268.778L40.2084 268.43L40.5556 267.68L40.9028 268.43L41.6528 268.778L40.9028 269.125L40.5556 269.875ZM46.6667 269.333L46.1389 268.194L45 267.667L46.1389 267.139L46.6667 266L47.1945 267.139L48.3334 267.667L47.1945 268.194L46.6667 269.333Z" fill="#2563EB"/>
<path d="M69.5774 269.319C69.549 269.032 69.4271 268.81 69.2116 268.651C68.9962 268.493 68.7038 268.413 68.3345 268.413C68.0836 268.413 67.8717 268.449 67.6989 268.52C67.526 268.589 67.3935 268.684 67.3011 268.808C67.2112 268.931 67.1662 269.07 67.1662 269.227C67.1615 269.357 67.1887 269.47 67.2479 269.567C67.3094 269.665 67.3935 269.749 67.5 269.82C67.6065 269.888 67.7296 269.949 67.8693 270.001C68.009 270.05 68.1581 270.093 68.3168 270.129L68.9702 270.285C69.2874 270.356 69.5786 270.451 69.8438 270.569C70.1089 270.687 70.3385 270.833 70.5327 271.006C70.7268 271.179 70.8771 271.382 70.9837 271.616C71.0926 271.851 71.1482 272.12 71.1506 272.423C71.1482 272.868 71.0346 273.254 70.8097 273.58C70.5871 273.905 70.2652 274.157 69.8438 274.337C69.4247 274.514 68.9193 274.603 68.3274 274.603C67.7403 274.603 67.2289 274.513 66.7933 274.333C66.3601 274.153 66.0215 273.887 65.7777 273.534C65.5362 273.179 65.4096 272.74 65.3977 272.217H66.8857C66.9022 272.46 66.9721 272.664 67.0952 272.827C67.2206 272.988 67.3875 273.11 67.5959 273.193C67.8066 273.274 68.0445 273.314 68.3097 273.314C68.5701 273.314 68.7962 273.276 68.9879 273.2C69.1821 273.125 69.3324 273.019 69.4389 272.884C69.5455 272.749 69.5987 272.594 69.5987 272.419C69.5987 272.256 69.5502 272.118 69.4531 272.007C69.3584 271.896 69.2188 271.801 69.0341 271.723C68.8518 271.645 68.6281 271.574 68.3629 271.51L67.571 271.311C66.9579 271.162 66.4737 270.929 66.1186 270.612C65.7635 270.294 65.5871 269.867 65.5895 269.33C65.5871 268.889 65.7043 268.504 65.9411 268.175C66.1802 267.846 66.508 267.589 66.9247 267.405C67.3414 267.22 67.8149 267.128 68.3452 267.128C68.8849 267.128 69.3561 267.22 69.7585 267.405C70.1634 267.589 70.4782 267.846 70.7031 268.175C70.928 268.504 71.044 268.886 71.0511 269.319H69.5774ZM72.1564 274.5V269.045H73.5982V270.008H73.6621C73.7757 269.688 73.9651 269.436 74.2303 269.251C74.4954 269.067 74.8127 268.974 75.182 268.974C75.556 268.974 75.8745 269.068 76.1373 269.255C76.4 269.44 76.5752 269.691 76.6628 270.008H76.7196C76.8309 269.695 77.0321 269.446 77.3233 269.259C77.6169 269.069 77.9637 268.974 78.3638 268.974C78.8728 268.974 79.2859 269.137 79.6032 269.461C79.9228 269.783 80.0826 270.24 80.0826 270.832V274.5H78.5733V271.13C78.5733 270.827 78.4928 270.6 78.3319 270.448C78.1709 270.297 77.9696 270.221 77.7282 270.221C77.4535 270.221 77.2393 270.308 77.0854 270.484C76.9315 270.656 76.8546 270.885 76.8546 271.169V274.5H75.388V271.098C75.388 270.83 75.311 270.617 75.1571 270.459C75.0056 270.3 74.8056 270.221 74.557 270.221C74.3889 270.221 74.2374 270.263 74.1025 270.349C73.9699 270.432 73.8645 270.549 73.7864 270.7C73.7083 270.849 73.6692 271.025 73.6692 271.226V274.5H72.1564ZM82.8329 274.603C82.4849 274.603 82.1748 274.543 81.9025 274.422C81.6303 274.299 81.4148 274.118 81.2562 273.879C81.1 273.637 81.0218 273.336 81.0218 272.977C81.0218 272.674 81.0775 272.419 81.1887 272.213C81.3 272.007 81.4515 271.841 81.6433 271.716C81.835 271.59 82.0529 271.496 82.2967 271.432C82.5429 271.368 82.801 271.323 83.0708 271.297C83.3881 271.264 83.6438 271.233 83.8379 271.205C84.032 271.174 84.1729 271.129 84.2605 271.07C84.3481 271.01 84.3919 270.923 84.3919 270.807V270.786C84.3919 270.561 84.3208 270.387 84.1788 270.263C84.0391 270.14 83.8403 270.079 83.5822 270.079C83.31 270.079 83.0933 270.139 82.9324 270.26C82.7714 270.378 82.6648 270.527 82.6127 270.707L81.2136 270.594C81.2846 270.262 81.4243 269.976 81.6326 269.734C81.841 269.491 82.1097 269.304 82.4387 269.173C82.7702 269.041 83.1537 268.974 83.5893 268.974C83.8923 268.974 84.1824 269.01 84.4593 269.081C84.7387 269.152 84.9861 269.262 85.2015 269.411C85.4193 269.56 85.591 269.752 85.7164 269.987C85.8419 270.219 85.9047 270.497 85.9047 270.821V274.5H84.47V273.744H84.4274C84.3398 273.914 84.2226 274.064 84.0758 274.195C83.929 274.322 83.7527 274.423 83.5467 274.496C83.3407 274.567 83.1028 274.603 82.8329 274.603ZM83.2662 273.559C83.4887 273.559 83.6852 273.515 83.8556 273.428C84.0261 273.338 84.1599 273.217 84.2569 273.065C84.354 272.914 84.4025 272.742 84.4025 272.55V271.972C84.3552 272.002 84.2901 272.031 84.2072 272.057C84.1267 272.08 84.0356 272.103 83.9338 272.124C83.832 272.143 83.7302 272.161 83.6284 272.178C83.5266 272.192 83.4342 272.205 83.3514 272.217C83.1738 272.243 83.0188 272.284 82.8862 272.341C82.7536 272.398 82.6506 272.475 82.5772 272.572C82.5038 272.666 82.4672 272.785 82.4672 272.927C82.4672 273.133 82.5417 273.29 82.6909 273.399C82.8424 273.506 83.0342 273.559 83.2662 273.559ZM87.0783 274.5V269.045H88.5449V269.997H88.6017C88.7012 269.659 88.8681 269.403 89.1025 269.23C89.3368 269.055 89.6067 268.967 89.9121 268.967C89.9879 268.967 90.0695 268.972 90.1571 268.982C90.2447 268.991 90.3217 269.004 90.388 269.021V270.363C90.3169 270.342 90.2187 270.323 90.0932 270.306C89.9677 270.29 89.8529 270.281 89.7488 270.281C89.5262 270.281 89.3274 270.33 89.1522 270.427C88.9793 270.522 88.842 270.654 88.7402 270.825C88.6408 270.995 88.5911 271.192 88.5911 271.414V274.5H87.0783ZM94.3448 269.045V270.182H91.06V269.045H94.3448ZM91.8058 267.739H93.3185V272.824C93.3185 272.964 93.3398 273.072 93.3825 273.151C93.4251 273.226 93.4843 273.28 93.56 273.31C93.6381 273.341 93.7281 273.357 93.8299 273.357C93.9009 273.357 93.9719 273.351 94.043 273.339C94.114 273.325 94.1684 273.314 94.2063 273.307L94.4442 274.433C94.3685 274.456 94.262 274.483 94.1246 274.514C93.9873 274.547 93.8204 274.567 93.6239 274.575C93.2594 274.589 92.9397 274.54 92.6651 274.429C92.3929 274.318 92.181 274.145 92.0295 273.911C91.878 273.676 91.8034 273.38 91.8058 273.023V267.739ZM101.618 269.319C101.59 269.032 101.468 268.81 101.253 268.651C101.037 268.493 100.745 268.413 100.376 268.413C100.125 268.413 99.9127 268.449 99.7399 268.52C99.5671 268.589 99.4345 268.684 99.3422 268.808C99.2522 268.931 99.2072 269.07 99.2072 269.227C99.2025 269.357 99.2297 269.47 99.2889 269.567C99.3504 269.665 99.4345 269.749 99.541 269.82C99.6475 269.888 99.7707 269.949 99.9103 270.001C100.05 270.05 100.199 270.093 100.358 270.129L101.011 270.285C101.328 270.356 101.62 270.451 101.885 270.569C102.15 270.687 102.38 270.833 102.574 271.006C102.768 271.179 102.918 271.382 103.025 271.616C103.134 271.851 103.189 272.12 103.192 272.423C103.189 272.868 103.076 273.254 102.851 273.58C102.628 273.905 102.306 274.157 101.885 274.337C101.466 274.514 100.96 274.603 100.368 274.603C99.7813 274.603 99.2699 274.513 98.8343 274.333C98.4011 274.153 98.0626 273.887 97.8187 273.534C97.5772 273.179 97.4506 272.74 97.4387 272.217H98.9267C98.9432 272.46 99.0131 272.664 99.1362 272.827C99.2617 272.988 99.4286 273.11 99.6369 273.193C99.8476 273.274 100.086 273.314 100.351 273.314C100.611 273.314 100.837 273.276 101.029 273.2C101.223 273.125 101.373 273.019 101.48 272.884C101.586 272.749 101.64 272.594 101.64 272.419C101.64 272.256 101.591 272.118 101.494 272.007C101.399 271.896 101.26 271.801 101.075 271.723C100.893 271.645 100.669 271.574 100.404 271.51L99.612 271.311C98.9989 271.162 98.5147 270.929 98.1596 270.612C97.8045 270.294 97.6281 269.867 97.6305 269.33C97.6281 268.889 97.7453 268.504 97.9821 268.175C98.2212 267.846 98.5491 267.589 98.9657 267.405C99.3824 267.22 99.8559 267.128 100.386 267.128C100.926 267.128 101.397 267.22 101.8 267.405C102.204 267.589 102.519 267.846 102.744 268.175C102.969 268.504 103.085 268.886 103.092 269.319H101.618ZM105.753 274.603C105.405 274.603 105.095 274.543 104.822 274.422C104.55 274.299 104.335 274.118 104.176 273.879C104.02 273.637 103.942 273.336 103.942 272.977C103.942 272.674 103.997 272.419 104.109 272.213C104.22 272.007 104.371 271.841 104.563 271.716C104.755 271.59 104.973 271.496 105.217 271.432C105.463 271.368 105.721 271.323 105.991 271.297C106.308 271.264 106.564 271.233 106.758 271.205C106.952 271.174 107.093 271.129 107.18 271.07C107.268 271.01 107.312 270.923 107.312 270.807V270.786C107.312 270.561 107.241 270.387 107.099 270.263C106.959 270.14 106.76 270.079 106.502 270.079C106.23 270.079 106.013 270.139 105.852 270.26C105.691 270.378 105.585 270.527 105.533 270.707L104.134 270.594C104.205 270.262 104.344 269.976 104.553 269.734C104.761 269.491 105.03 269.304 105.359 269.173C105.69 269.041 106.074 268.974 106.509 268.974C106.812 268.974 107.102 269.01 107.379 269.081C107.659 269.152 107.906 269.262 108.121 269.411C108.339 269.56 108.511 269.752 108.636 269.987C108.762 270.219 108.825 270.497 108.825 270.821V274.5H107.39V273.744H107.347C107.26 273.914 107.143 274.064 106.996 274.195C106.849 274.322 106.673 274.423 106.467 274.496C106.261 274.567 106.023 274.603 105.753 274.603ZM106.186 273.559C106.409 273.559 106.605 273.515 106.776 273.428C106.946 273.338 107.08 273.217 107.177 273.065C107.274 272.914 107.322 272.742 107.322 272.55V271.972C107.275 272.002 107.21 272.031 107.127 272.057C107.047 272.08 106.955 272.103 106.854 272.124C106.752 272.143 106.65 272.161 106.548 272.178C106.446 272.192 106.354 272.205 106.271 272.217C106.094 272.243 105.939 272.284 105.806 272.341C105.674 272.398 105.571 272.475 105.497 272.572C105.424 272.666 105.387 272.785 105.387 272.927C105.387 273.133 105.462 273.29 105.611 273.399C105.762 273.506 105.954 273.559 106.186 273.559ZM114.888 269.045L112.981 274.5H111.277L109.37 269.045H110.968L112.1 272.948H112.157L113.287 269.045H114.888ZM115.662 274.5V269.045H117.175V274.5H115.662ZM116.422 268.342C116.197 268.342 116.004 268.268 115.843 268.119C115.685 267.967 115.605 267.786 115.605 267.575C115.605 267.367 115.685 267.188 115.843 267.039C116.004 266.888 116.197 266.812 116.422 266.812C116.647 266.812 116.839 266.888 116.998 267.039C117.158 267.188 117.239 267.367 117.239 267.575C117.239 267.786 117.158 267.967 116.998 268.119C116.839 268.268 116.647 268.342 116.422 268.342ZM119.9 271.347V274.5H118.387V269.045H119.829V270.008H119.893C120.013 269.691 120.216 269.44 120.5 269.255C120.784 269.068 121.128 268.974 121.533 268.974C121.912 268.974 122.242 269.057 122.524 269.223C122.806 269.389 123.025 269.625 123.181 269.933C123.337 270.239 123.415 270.603 123.415 271.027V274.5H121.903V271.297C121.905 270.963 121.82 270.703 121.647 270.516C121.474 270.326 121.236 270.232 120.933 270.232C120.729 270.232 120.55 270.275 120.393 270.363C120.239 270.451 120.119 270.578 120.031 270.746C119.946 270.912 119.902 271.112 119.9 271.347ZM127.065 276.659C126.575 276.659 126.155 276.592 125.804 276.457C125.456 276.324 125.179 276.143 124.973 275.913C124.767 275.684 124.634 275.426 124.572 275.139L125.971 274.951C126.014 275.06 126.081 275.162 126.174 275.256C126.266 275.351 126.388 275.427 126.539 275.484C126.693 275.543 126.88 275.572 127.1 275.572C127.43 275.572 127.701 275.492 127.914 275.331C128.129 275.172 128.237 274.906 128.237 274.532V273.534H128.173C128.107 273.686 128.007 273.829 127.875 273.964C127.742 274.099 127.572 274.209 127.363 274.294C127.155 274.379 126.906 274.422 126.618 274.422C126.208 274.422 125.835 274.327 125.499 274.138C125.165 273.946 124.899 273.654 124.7 273.261C124.503 272.865 124.405 272.366 124.405 271.762C124.405 271.144 124.506 270.628 124.707 270.214C124.908 269.799 125.176 269.489 125.51 269.283C125.846 269.077 126.214 268.974 126.614 268.974C126.919 268.974 127.175 269.027 127.381 269.131C127.587 269.232 127.753 269.36 127.878 269.514C128.006 269.666 128.104 269.815 128.173 269.962H128.23V269.045H129.732V274.553C129.732 275.017 129.618 275.406 129.391 275.718C129.164 276.031 128.849 276.265 128.446 276.421C128.046 276.58 127.586 276.659 127.065 276.659ZM127.097 273.286C127.341 273.286 127.547 273.225 127.715 273.104C127.885 272.981 128.016 272.806 128.105 272.579C128.198 272.349 128.244 272.075 128.244 271.755C128.244 271.435 128.199 271.158 128.109 270.924C128.019 270.687 127.889 270.504 127.718 270.374C127.548 270.243 127.341 270.178 127.097 270.178C126.848 270.178 126.639 270.246 126.468 270.381C126.298 270.513 126.169 270.698 126.081 270.935C125.994 271.171 125.95 271.445 125.95 271.755C125.95 272.07 125.994 272.342 126.081 272.572C126.171 272.799 126.3 272.975 126.468 273.101C126.639 273.224 126.848 273.286 127.097 273.286ZM135.474 270.601L134.089 270.686C134.065 270.568 134.015 270.461 133.936 270.366C133.858 270.269 133.755 270.192 133.627 270.136C133.502 270.076 133.352 270.047 133.176 270.047C132.942 270.047 132.744 270.097 132.583 270.196C132.422 270.293 132.342 270.423 132.342 270.587C132.342 270.717 132.394 270.827 132.498 270.917C132.602 271.007 132.781 271.079 133.034 271.134L134.022 271.332C134.552 271.441 134.947 271.616 135.208 271.858C135.468 272.099 135.598 272.417 135.598 272.81C135.598 273.167 135.493 273.481 135.282 273.751C135.074 274.021 134.788 274.231 134.423 274.383C134.061 274.532 133.643 274.607 133.169 274.607C132.447 274.607 131.872 274.456 131.444 274.156C131.017 273.853 130.768 273.441 130.694 272.92L132.182 272.842C132.227 273.062 132.336 273.23 132.509 273.346C132.682 273.46 132.903 273.516 133.173 273.516C133.438 273.516 133.651 273.465 133.812 273.364C133.975 273.259 134.058 273.126 134.061 272.962C134.058 272.825 134 272.713 133.887 272.625C133.773 272.535 133.598 272.466 133.361 272.419L132.417 272.231C131.884 272.124 131.487 271.94 131.227 271.677C130.969 271.414 130.84 271.079 130.84 270.672C130.84 270.321 130.935 270.02 131.124 269.766C131.316 269.513 131.584 269.318 131.93 269.18C132.278 269.043 132.685 268.974 133.152 268.974C133.841 268.974 134.383 269.12 134.778 269.411C135.176 269.702 135.408 270.099 135.474 270.601Z" fill="#374151"/>
</g>
<defs>
<filter id="filter0_i_136_248" x="84" y="72" width="160" height="162" filterUnits="userSpaceOnUse" color-interpolation-filters="sRGB">
<feFlood flood-opacity="0" result="BackgroundImageFix"/>
<feBlend mode="normal" in="SourceGraphic" in2="BackgroundImageFix" result="shape"/>
<feColorMatrix in="SourceAlpha" type="matrix" values="0 0 0 0 0 0 0 0 0 0 0 0 0 0 0 0 0 0 127 0" result="hardAlpha"/>
<feOffset dy="2"/>
<feGaussianBlur stdDeviation="2"/>
<feComposite in2="hardAlpha" operator="arithmetic" k2="-1" k3="1"/>
<feColorMatrix type="matrix" values="0 0 0 0 0 0 0 0 0 0 0 0 0 0 0 0 0 0 0.05 0"/>
<feBlend mode="normal" in2="shape" result="effect1_innerShadow_136_248"/>
</filter>
<filter id="filter1_dd_136_248" x="178.03" y="8" width="149" height="90" filterUnits="userSpaceOnUse" color-interpolation-filters="sRGB">
<feFlood flood-opacity="0" result="BackgroundImageFix"/>
<feColorMatrix in="SourceAlpha" type="matrix" values="0 0 0 0 0 0 0 0 0 0 0 0 0 0 0 0 0 0 127 0" result="hardAlpha"/>
<feMorphology radius="6" operator="erode" in="SourceAlpha" result="effect1_dropShadow_136_248"/>
<feOffset dy="8"/>
<feGaussianBlur stdDeviation="5"/>
<feComposite in2="hardAlpha" operator="out"/>
<feColorMatrix type="matrix" values="0 0 0 0 0 0 0 0 0 0 0 0 0 0 0 0 0 0 0.1 0"/>
<feBlend mode="normal" in2="BackgroundImageFix" result="effect1_dropShadow_136_248"/>
<feColorMatrix in="SourceAlpha" type="matrix" values="0 0 0 0 0 0 0 0 0 0 0 0 0 0 0 0 0 0 127 0" result="hardAlpha"/>
<feMorphology radius="5" operator="erode" in="SourceAlpha" result="effect2_dropShadow_136_248"/>
<feOffset dy="20"/>
<feGaussianBlur stdDeviation="12.5"/>
<feComposite in2="hardAlpha" operator="out"/>
<feColorMatrix type="matrix" values="0 0 0 0 0 0 0 0 0 0 0 0 0 0 0 0 0 0 0.1 0"/>
<feBlend mode="normal" in2="effect1_dropShadow_136_248" result="effect2_dropShadow_136_248"/>
<feBlend mode="normal" in="SourceGraphic" in2="effect2_dropShadow_136_248" result="shape"/>
</filter>
<filter id="filter2_dd_136_248" x="0" y="246" width="169" height="90" filterUnits="userSpaceOnUse" color-interpolation-filters="sRGB">
<feFlood flood-opacity="0" result="BackgroundImageFix"/>
<feColorMatrix in="SourceAlpha" type="matrix" values="0 0 0 0 0 0 0 0 0 0 0 0 0 0 0 0 0 0 127 0" result="hardAlpha"/>
<feMorphology radius="6" operator="erode" in="SourceAlpha" result="effect1_dropShadow_136_248"/>
<feOffset dy="8"/>
<feGaussianBlur stdDeviation="5"/>
<feComposite in2="hardAlpha" operator="out"/>
<feColorMatrix type="matrix" values="0 0 0 0 0 0 0 0 0 0 0 0 0 0 0 0 0 0 0.1 0"/>
<feBlend mode="normal" in2="BackgroundImageFix" result="effect1_dropShadow_136_248"/>
<feColorMatrix in="SourceAlpha" type="matrix" values="0 0 0 0 0 0 0 0 0 0 0 0 0 0 0 0 0 0 127 0" result="hardAlpha"/>
<feMorphology radius="5" operator="erode" in="SourceAlpha" result="effect2_dropShadow_136_248"/>
<feOffset dy="20"/>
<feGaussianBlur stdDeviation="12.5"/>
<feComposite in2="hardAlpha" operator="out"/>
<feColorMatrix type="matrix" values="0 0 0 0 0 0 0 0 0 0 0 0 0 0 0 0 0 0 0.1 0"/>
<feBlend mode="normal" in2="effect1_dropShadow_136_248" result="effect2_dropShadow_136_248"/>
<feBlend mode="normal" in="SourceGraphic" in2="effect2_dropShadow_136_248" result="shape"/>
</filter>
</defs>
</svg>
