<svg width="362" height="351" viewBox="0 0 362 351" fill="none" xmlns="http://www.w3.org/2000/svg">
<mask id="path-1-inside-1_136_247" fill="white">
<path d="M44 152C44 81.3076 101.308 24 172 24V24C242.692 24 300 81.3076 300 152V152C300 222.692 242.692 280 172 280V280C101.308 280 44 222.692 44 152V152Z"/>
</mask>
<path d="M172 280V279.5C171.496 279.5 170.993 279.497 170.491 279.491L170.485 279.991L170.479 280.491C170.986 280.497 171.492 280.5 172 280.5V280ZM168.472 279.952L168.486 279.452C167.485 279.425 166.487 279.387 165.492 279.337L165.467 279.836L165.442 280.336C166.444 280.386 167.45 280.425 168.459 280.452L168.472 279.952ZM163.453 279.719L163.486 279.22C162.484 279.154 161.486 279.077 160.491 278.988L160.447 279.486L160.402 279.984C161.405 280.073 162.411 280.152 163.42 280.218L163.453 279.719ZM158.449 279.291L158.501 278.794C157.502 278.689 156.505 278.572 155.512 278.444L155.448 278.94L155.384 279.436C156.385 279.565 157.389 279.682 158.397 279.788L158.449 279.291ZM153.459 278.667L153.531 278.172C152.537 278.028 151.547 277.872 150.561 277.705L150.478 278.198L150.394 278.691C151.388 278.86 152.386 279.017 153.388 279.162L153.459 278.667ZM148.497 277.847L148.589 277.355C147.603 277.173 146.622 276.978 145.645 276.773L145.542 277.262L145.439 277.752C146.424 277.959 147.413 278.154 148.406 278.339L148.497 277.847ZM143.574 276.832L143.685 276.345C142.708 276.123 141.735 275.89 140.766 275.647L140.644 276.131L140.522 276.616C141.498 276.862 142.479 277.097 143.464 277.32L143.574 276.832ZM138.697 275.625L138.827 275.142C137.858 274.881 136.894 274.61 135.934 274.328L135.793 274.807L135.652 275.287C136.619 275.572 137.591 275.845 138.567 276.108L138.697 275.625ZM133.872 274.225L134.021 273.748C133.062 273.449 132.108 273.139 131.159 272.819L130.999 273.292L130.839 273.766C131.796 274.089 132.757 274.401 133.723 274.703L133.872 274.225ZM129.101 272.634L129.269 272.163C128.324 271.827 127.384 271.48 126.45 271.123L126.271 271.59L126.092 272.057C127.034 272.417 127.981 272.767 128.933 273.105L129.101 272.634ZM124.398 270.856L124.584 270.392C123.654 270.019 122.73 269.636 121.811 269.242L121.614 269.702L121.417 270.161C122.343 270.558 123.275 270.945 124.212 271.32L124.398 270.856ZM119.77 268.894L119.975 268.438C119.06 268.028 118.152 267.609 117.249 267.179L117.034 267.63L116.819 268.082C117.729 268.515 118.645 268.938 119.566 269.35L119.77 268.894ZM115.224 266.751L115.446 266.303C114.548 265.858 113.656 265.402 112.77 264.937L112.538 265.379L112.305 265.822C113.198 266.291 114.097 266.75 115.002 267.199L115.224 266.751ZM110.767 264.431L111.006 263.992C110.126 263.512 109.252 263.021 108.385 262.521L108.135 262.954L107.885 263.387C108.759 263.891 109.64 264.386 110.527 264.87L110.767 264.431ZM106.402 261.936L106.658 261.507C105.798 260.992 104.945 260.468 104.098 259.934L103.831 260.357L103.564 260.78C104.418 261.318 105.278 261.847 106.145 262.365L106.402 261.936ZM102.139 259.272L102.412 258.853C101.573 258.305 100.741 257.748 99.9158 257.182L99.6328 257.594L99.3497 258.006C100.181 258.577 101.02 259.138 101.865 259.69L102.139 259.272ZM97.9836 256.442L98.2731 256.035C97.4564 255.455 96.6469 254.866 95.8446 254.267L95.5457 254.668L95.2467 255.069C96.0553 255.672 96.8711 256.266 97.6941 256.85L97.9836 256.442ZM93.9428 253.453L94.248 253.057C93.4545 252.445 92.6684 251.825 91.8898 251.195L91.5754 251.584L91.2611 251.973C92.0457 252.607 92.8379 253.233 93.6376 253.849L93.9428 253.453ZM90.022 250.308L90.3424 249.924C89.5733 249.282 88.812 248.631 88.0584 247.971L87.7291 248.348L87.3998 248.724C88.1592 249.389 88.9265 250.045 89.7015 250.692L90.022 250.308ZM86.2267 247.012L86.5619 246.641C85.8186 245.969 85.0832 245.289 84.356 244.601L84.0122 244.964L83.6685 245.327C84.4014 246.021 85.1424 246.706 85.8915 247.383L86.2267 247.012ZM82.5629 243.57L82.9123 243.212C82.1959 242.512 81.4877 241.804 80.7879 241.088L80.4302 241.437L80.0725 241.786C80.7778 242.508 81.4915 243.222 82.2135 243.927L82.5629 243.57ZM79.0364 239.988L79.3995 239.644C78.7109 238.917 78.0308 238.181 77.3594 237.438L76.9884 237.773L76.6173 238.108C77.294 238.858 77.9794 239.599 78.6733 240.331L79.0364 239.988ZM75.6523 236.271L76.0286 235.942C75.3689 235.188 74.7181 234.427 74.0761 233.658L73.6922 233.978L73.3084 234.298C73.9554 235.073 74.6114 235.841 75.2761 236.6L75.6523 236.271ZM72.4159 232.425L72.8047 232.11C72.1751 231.332 71.5546 230.546 70.9431 229.752L70.5471 230.057L70.151 230.362C70.7672 231.162 71.3926 231.954 72.0271 232.739L72.4159 232.425ZM69.3319 228.454L69.7326 228.155C69.1343 227.353 68.5451 226.544 67.9653 225.727L67.5576 226.016L67.1499 226.306C67.7342 227.129 68.328 227.945 68.9311 228.753L69.3319 228.454ZM66.4061 224.367L66.8183 224.084C66.2517 223.259 65.6947 222.427 65.1472 221.588L64.7285 221.861L64.3097 222.135C64.8615 222.98 65.4229 223.819 65.9939 224.65L66.4061 224.367ZM63.6428 220.169L64.0657 219.902C63.5318 219.055 63.0076 218.202 62.4932 217.342L62.0641 217.598L61.635 217.855C62.1534 218.722 62.6817 219.582 63.2198 220.436L63.6428 220.169ZM61.0462 215.865L61.4793 215.615C60.9789 214.748 60.4885 213.874 60.0081 212.994L59.5692 213.233L59.1303 213.473C59.6145 214.36 60.1088 215.241 60.6131 216.115L61.0462 215.865ZM58.6205 211.462L59.0631 211.23C58.5975 210.344 58.1421 209.452 57.6969 208.553L57.2489 208.776L56.8009 208.998C57.2496 209.903 57.7087 210.802 58.1779 211.695L58.6205 211.462ZM56.3697 206.966L56.8211 206.751C56.3912 205.848 55.9715 204.94 55.5624 204.025L55.106 204.23L54.6496 204.434C55.062 205.355 55.4849 206.271 55.9183 207.181L56.3697 206.966ZM54.2984 202.386L54.758 202.189C54.3641 201.27 53.9807 200.346 53.608 199.416L53.1439 199.602L52.6798 199.788C53.0555 200.725 53.4419 201.657 53.8389 202.583L54.2984 202.386ZM52.4103 197.729L52.8773 197.55C52.5198 196.616 52.1729 195.676 51.8369 194.731L51.3658 194.899L50.8947 195.066C51.2334 196.019 51.583 196.966 51.9433 197.908L52.4103 197.729ZM50.7075 193.001L51.1812 192.841C50.8606 191.892 50.5509 190.938 50.2521 189.979L49.7748 190.128L49.2974 190.277C49.5985 191.243 49.9107 192.204 50.2339 193.161L50.7075 193.001ZM49.1928 188.207L49.6725 188.066C49.39 187.106 49.1185 186.142 48.8582 185.173L48.3753 185.303L47.8924 185.433C48.1549 186.409 48.4285 187.381 48.7132 188.348L49.1928 188.207ZM47.8685 183.356L48.3534 183.234C48.1095 182.265 47.8767 181.292 47.6551 180.315L47.1675 180.426L46.6799 180.536C46.9032 181.521 47.1379 182.502 47.3837 183.478L47.8685 183.356ZM46.7377 178.458L47.227 178.355C47.0216 177.378 46.8274 176.396 46.6446 175.411L46.153 175.502L45.6614 175.594C45.8457 176.587 46.0414 177.576 46.2483 178.561L46.7377 178.458ZM45.8016 173.522L46.2946 173.439C46.1276 172.453 45.972 171.463 45.8278 170.469L45.333 170.541L44.8382 170.612C44.9835 171.614 45.1403 172.612 45.3086 173.606L45.8016 173.522ZM45.0603 168.552L45.5562 168.488C45.428 167.495 45.3113 166.498 45.206 165.499L44.7088 165.551L44.2115 165.603C44.3176 166.611 44.4353 167.615 44.5644 168.616L45.0603 168.552ZM44.5144 163.553L45.0124 163.509C44.9234 162.514 44.8458 161.516 44.7798 160.514L44.2808 160.547L43.7819 160.58C43.8485 161.589 43.9266 162.595 44.0163 163.598L44.5144 163.553ZM44.1638 158.533L44.6632 158.508C44.6132 157.513 44.5746 156.515 44.5475 155.514L44.0477 155.528L43.5479 155.541C43.5752 156.55 43.6141 157.556 43.6645 158.558L44.1638 158.533ZM44.0088 153.515L44.5087 153.509C44.5029 153.007 44.5 152.504 44.5 152H44H43.5C43.5 152.508 43.5029 153.014 43.5088 153.521L44.0088 153.515ZM44 152H44.5C44.5 151.496 44.5029 150.993 44.5087 150.491L44.0088 150.485L43.5088 150.479C43.5029 150.986 43.5 151.492 43.5 152H44ZM44.0477 148.472L44.5475 148.486C44.5746 147.485 44.6132 146.487 44.6632 145.492L44.1638 145.467L43.6645 145.442C43.6141 146.444 43.5752 147.45 43.5479 148.459L44.0477 148.472ZM44.2808 143.453L44.7798 143.486C44.8458 142.484 44.9234 141.486 45.0124 140.491L44.5144 140.447L44.0163 140.402C43.9266 141.405 43.8485 142.411 43.7819 143.42L44.2808 143.453ZM44.7088 138.449L45.206 138.501C45.3113 137.502 45.428 136.505 45.5562 135.512L45.0603 135.448L44.5645 135.384C44.4353 136.385 44.3176 137.389 44.2115 138.397L44.7088 138.449ZM45.333 133.459L45.8278 133.531C45.972 132.537 46.1276 131.547 46.2946 130.561L45.8016 130.478L45.3086 130.394C45.1404 131.388 44.9835 132.386 44.8382 133.388L45.333 133.459ZM46.153 128.497L46.6446 128.589C46.8274 127.603 47.0216 126.622 47.227 125.645L46.7377 125.542L46.2484 125.439C46.0414 126.424 45.8457 127.413 45.6614 128.406L46.153 128.497ZM47.1675 123.574L47.6551 123.685C47.8767 122.708 48.1095 121.735 48.3534 120.766L47.8685 120.644L47.3837 120.522C47.1379 121.498 46.9032 122.479 46.6799 123.464L47.1675 123.574ZM48.3753 118.697L48.8582 118.827C49.1185 117.858 49.39 116.894 49.6725 115.934L49.1928 115.793L48.7132 115.652C48.4285 116.619 48.1549 117.591 47.8924 118.567L48.3753 118.697ZM49.7748 113.872L50.2521 114.021C50.5509 113.062 50.8606 112.108 51.1812 111.159L50.7076 110.999L50.2339 110.839C49.9107 111.796 49.5985 112.757 49.2974 113.723L49.7748 113.872ZM51.3658 109.101L51.8369 109.269C52.1729 108.324 52.5198 107.384 52.8773 106.45L52.4103 106.271L51.9433 106.092C51.583 107.034 51.2334 107.981 50.8947 108.933L51.3658 109.101ZM53.1439 104.398L53.608 104.584C53.9807 103.654 54.3641 102.73 54.758 101.811L54.2984 101.614L53.8389 101.417C53.4419 102.343 53.0555 103.275 52.6798 104.212L53.1439 104.398ZM55.106 99.7705L55.5624 99.9747C55.9716 99.0603 56.3912 98.1516 56.8211 97.2487L56.3697 97.0338L55.9183 96.8188C55.485 97.7288 55.062 98.6446 54.6496 99.5662L55.106 99.7705ZM57.2489 95.2244L57.6969 95.4465C58.1421 94.5484 58.5976 93.6564 59.0631 92.7704L58.6205 92.5378L58.1779 92.3052C57.7087 93.1981 57.2496 94.0972 56.801 95.0023L57.2489 95.2244ZM59.5692 90.7667L60.0081 91.0062C60.4885 90.126 60.9789 89.2521 61.4793 88.3847L61.0462 88.1349L60.6131 87.885C60.1088 88.7593 59.6145 89.64 59.1303 90.5271L59.5692 90.7667ZM62.0641 86.4018L62.4933 86.6584C63.0076 85.7983 63.5319 84.9447 64.0658 84.0978L63.6428 83.8311L63.2198 83.5645C62.6817 84.418 62.1534 85.2783 61.635 86.1452L62.0641 86.4018ZM64.7285 82.1386L65.1472 82.4118C65.6947 81.5729 66.2518 80.7409 66.8183 79.9158L66.4061 79.6328L65.9939 79.3497C65.423 80.1813 64.8615 81.0199 64.3098 81.8653L64.7285 82.1386ZM67.5576 77.9836L67.9653 78.2731C68.5451 77.4564 69.1343 76.6469 69.7327 75.8446L69.3319 75.5457L68.9311 75.2467C68.328 76.0553 67.7343 76.8711 67.1499 77.6941L67.5576 77.9836ZM70.5471 73.9428L70.9432 74.248C71.5546 73.4545 72.1751 72.6684 72.8047 71.8898L72.4159 71.5754L72.0271 71.2611C71.3926 72.0457 70.7672 72.8379 70.151 73.6376L70.5471 73.9428ZM73.6923 70.022L74.0761 70.3424C74.7181 69.5733 75.369 68.812 76.0286 68.0584L75.6524 67.7291L75.2762 67.3998C74.6114 68.1592 73.9554 68.9265 73.3084 69.7015L73.6923 70.022ZM76.9884 66.2267L77.3594 66.5619C78.0309 65.8186 78.7109 65.0832 79.3995 64.356L79.0364 64.0122L78.6733 63.6685C77.9794 64.4014 77.294 65.1424 76.6174 65.8915L76.9884 66.2267ZM80.4303 62.5629L80.7879 62.9123C81.4877 62.1959 82.1959 61.4877 82.9123 60.7879L82.5629 60.4302L82.2135 60.0725C81.4916 60.7778 80.7779 61.4915 80.0726 62.2135L80.4303 62.5629ZM84.0123 59.0364L84.356 59.3995C85.0833 58.7109 85.8186 58.0308 86.5619 57.3594L86.2267 56.9884L85.8916 56.6173C85.1425 57.294 84.4014 57.9794 83.6685 58.6733L84.0123 59.0364ZM87.7291 55.6523L88.0585 56.0286C88.812 55.3689 89.5734 54.7181 90.3424 54.0761L90.022 53.6922L89.7016 53.3084C88.9265 53.9554 88.1592 54.6114 87.3998 55.2761L87.7291 55.6523ZM91.5755 52.4159L91.8899 52.8047C92.6684 52.1751 93.4545 51.5546 94.248 50.9431L93.9428 50.5471L93.6376 50.151C92.8379 50.7672 92.0457 51.3926 91.2611 52.0271L91.5755 52.4159ZM95.5457 49.3319L95.8447 49.7326C96.6469 49.1343 97.4564 48.5451 98.2731 47.9653L97.9836 47.5576L97.6942 47.1499C96.8712 47.7342 96.0553 48.328 95.2468 48.9311L95.5457 49.3319ZM99.6328 46.4061L99.9158 46.8183C100.741 46.2517 101.573 45.6947 102.412 45.1472L102.139 44.7285L101.865 44.3097C101.02 44.8615 100.181 45.4229 99.3498 45.9939L99.6328 46.4061ZM103.831 43.6428L104.098 44.0657C104.945 43.5318 105.798 43.0076 106.658 42.4932L106.402 42.0641L106.145 41.635C105.278 42.1534 104.418 42.6817 103.564 43.2198L103.831 43.6428ZM108.135 41.0462L108.385 41.4793C109.252 40.9789 110.126 40.4885 111.006 40.0081L110.767 39.5692L110.527 39.1303C109.64 39.6145 108.759 40.1088 107.885 40.6131L108.135 41.0462ZM112.538 38.6205L112.77 39.0631C113.656 38.5975 114.548 38.1421 115.447 37.6969L115.224 37.2489L115.002 36.8009C114.097 37.2496 113.198 37.7087 112.305 38.1779L112.538 38.6205ZM117.034 36.3697L117.249 36.8211C118.152 36.3912 119.06 35.9715 119.975 35.5624L119.77 35.106L119.566 34.6496C118.645 35.062 117.729 35.4849 116.819 35.9183L117.034 36.3697ZM121.614 34.2984L121.811 34.758C122.73 34.3641 123.654 33.9807 124.584 33.608L124.398 33.1439L124.212 32.6798C123.275 33.0555 122.343 33.4419 121.417 33.8389L121.614 34.2984ZM126.271 32.4103L126.45 32.8773C127.384 32.5198 128.324 32.1729 129.269 31.8369L129.101 31.3658L128.934 30.8947C127.981 31.2334 127.034 31.583 126.092 31.9433L126.271 32.4103ZM130.999 30.7075L131.159 31.1812C132.108 30.8606 133.062 30.5509 134.021 30.2521L133.872 29.7748L133.723 29.2974C132.757 29.5985 131.796 29.9107 130.839 30.2339L130.999 30.7075ZM135.793 29.1928L135.934 29.6725C136.894 29.39 137.858 29.1185 138.827 28.8582L138.697 28.3753L138.567 27.8924C137.591 28.1549 136.619 28.4285 135.652 28.7132L135.793 29.1928ZM140.644 27.8685L140.766 28.3534C141.735 28.1095 142.708 27.8767 143.685 27.6551L143.574 27.1675L143.464 26.6799C142.479 26.9032 141.498 27.1379 140.522 27.3837L140.644 27.8685ZM145.542 26.7377L145.645 27.227C146.622 27.0216 147.603 26.8274 148.589 26.6446L148.498 26.153L148.406 25.6614C147.413 25.8457 146.424 26.0414 145.439 26.2483L145.542 26.7377ZM150.478 25.8016L150.561 26.2946C151.547 26.1276 152.537 25.972 153.531 25.8278L153.459 25.333L153.388 24.8382C152.386 24.9835 151.388 25.1403 150.394 25.3086L150.478 25.8016ZM155.448 25.0603L155.512 25.5562C156.505 25.428 157.502 25.3113 158.501 25.206L158.449 24.7088L158.397 24.2115C157.389 24.3176 156.385 24.4353 155.384 24.5644L155.448 25.0603ZM160.447 24.5144L160.491 25.0124C161.486 24.9234 162.484 24.8458 163.486 24.7798L163.453 24.2808L163.42 23.7819C162.411 23.8485 161.405 23.9266 160.402 24.0163L160.447 24.5144ZM165.467 24.1638L165.492 24.6632C166.487 24.6132 167.485 24.5746 168.486 24.5475L168.472 24.0477L168.459 23.5479C167.45 23.5752 166.444 23.6141 165.442 23.6645L165.467 24.1638ZM170.485 24.0088L170.491 24.5087C170.993 24.5029 171.496 24.5 172 24.5V24V23.5C171.492 23.5 170.986 23.5029 170.479 23.5088L170.485 24.0088ZM172 24V24.5C172.504 24.5 173.007 24.5029 173.509 24.5087L173.515 24.0088L173.521 23.5088C173.014 23.5029 172.508 23.5 172 23.5V24ZM175.528 24.0477L175.514 24.5475C176.515 24.5746 177.513 24.6132 178.508 24.6632L178.533 24.1638L178.558 23.6645C177.556 23.6141 176.55 23.5752 175.541 23.5479L175.528 24.0477ZM180.547 24.2808L180.514 24.7798C181.516 24.8458 182.514 24.9234 183.509 25.0124L183.553 24.5144L183.598 24.0163C182.595 23.9266 181.589 23.8485 180.58 23.7819L180.547 24.2808ZM185.551 24.7088L185.499 25.206C186.499 25.3113 187.495 25.428 188.488 25.5562L188.552 25.0603L188.616 24.5645C187.615 24.4353 186.611 24.3176 185.603 24.2115L185.551 24.7088ZM190.541 25.333L190.469 25.8278C191.463 25.972 192.453 26.1276 193.439 26.2946L193.522 25.8016L193.606 25.3086C192.612 25.1404 191.614 24.9835 190.612 24.8382L190.541 25.333ZM195.503 26.153L195.411 26.6446C196.397 26.8274 197.378 27.0216 198.355 27.227L198.458 26.7377L198.561 26.2484C197.576 26.0414 196.587 25.8457 195.594 25.6614L195.503 26.153ZM200.426 27.1675L200.315 27.6551C201.292 27.8767 202.265 28.1095 203.234 28.3534L203.356 27.8685L203.478 27.3837C202.502 27.1379 201.521 26.9032 200.536 26.6799L200.426 27.1675ZM205.303 28.3753L205.173 28.8582C206.142 29.1185 207.106 29.39 208.066 29.6725L208.207 29.1928L208.348 28.7132C207.381 28.4285 206.409 28.1549 205.433 27.8924L205.303 28.3753ZM210.128 29.7748L209.979 30.2521C210.938 30.5509 211.892 30.8606 212.841 31.1812L213.001 30.7076L213.161 30.2339C212.204 29.9107 211.243 29.5985 210.277 29.2974L210.128 29.7748ZM214.899 31.3658L214.731 31.8369C215.676 32.1729 216.616 32.5198 217.55 32.8773L217.729 32.4103L217.908 31.9433C216.966 31.583 216.019 31.2334 215.066 30.8947L214.899 31.3658ZM219.602 33.1439L219.416 33.608C220.346 33.9807 221.27 34.3641 222.189 34.758L222.386 34.2984L222.583 33.8389C221.657 33.4419 220.725 33.0555 219.788 32.6798L219.602 33.1439ZM224.23 35.106L224.025 35.5624C224.94 35.9716 225.848 36.3912 226.751 36.8211L226.966 36.3697L227.181 35.9183C226.271 35.485 225.355 35.062 224.434 34.6496L224.23 35.106ZM228.776 37.2489L228.554 37.6969C229.452 38.1421 230.344 38.5976 231.23 39.0631L231.462 38.6205L231.695 38.1779C230.802 37.7087 229.903 37.2496 228.998 36.801L228.776 37.2489ZM233.233 39.5692L232.994 40.0081C233.874 40.4885 234.748 40.9789 235.615 41.4793L235.865 41.0462L236.115 40.6131C235.241 40.1088 234.36 39.6145 233.473 39.1303L233.233 39.5692ZM237.598 42.0641L237.342 42.4933C238.202 43.0076 239.055 43.5319 239.902 44.0658L240.169 43.6428L240.436 43.2198C239.582 42.6817 238.722 42.1534 237.855 41.635L237.598 42.0641ZM241.861 44.7285L241.588 45.1472C242.427 45.6947 243.259 46.2518 244.084 46.8183L244.367 46.4061L244.65 45.9939C243.819 45.423 242.98 44.8615 242.135 44.3098L241.861 44.7285ZM246.016 47.5576L245.727 47.9653C246.544 48.5451 247.353 49.1343 248.155 49.7327L248.454 49.3319L248.753 48.9311C247.945 48.328 247.129 47.7343 246.306 47.1499L246.016 47.5576ZM250.057 50.5471L249.752 50.9432C250.546 51.5546 251.332 52.1751 252.11 52.8047L252.425 52.4159L252.739 52.0271C251.954 51.3926 251.162 50.7672 250.362 50.151L250.057 50.5471ZM253.978 53.6923L253.658 54.0761C254.427 54.7181 255.188 55.369 255.942 56.0286L256.271 55.6524L256.6 55.2762C255.841 54.6114 255.074 53.9554 254.298 53.3084L253.978 53.6923ZM257.773 56.9884L257.438 57.3594C258.181 58.0309 258.917 58.7109 259.644 59.3995L259.988 59.0364L260.332 58.6733C259.599 57.9794 258.858 57.294 258.108 56.6174L257.773 56.9884ZM261.437 60.4303L261.088 60.7879C261.804 61.4877 262.512 62.1959 263.212 62.9123L263.57 62.5629L263.927 62.2135C263.222 61.4916 262.508 60.7779 261.786 60.0726L261.437 60.4303ZM264.964 64.0123L264.601 64.356C265.289 65.0833 265.969 65.8186 266.641 66.5619L267.012 66.2267L267.383 65.8916C266.706 65.1425 266.021 64.4014 265.327 63.6685L264.964 64.0123ZM268.348 67.7291L267.971 68.0585C268.631 68.812 269.282 69.5734 269.924 70.3424L270.308 70.022L270.692 69.7016C270.045 68.9265 269.389 68.1592 268.724 67.3998L268.348 67.7291ZM271.584 71.5755L271.195 71.8899C271.825 72.6684 272.445 73.4545 273.057 74.248L273.453 73.9428L273.849 73.6376C273.233 72.8379 272.607 72.0457 271.973 71.2611L271.584 71.5755ZM274.668 75.5457L274.267 75.8447C274.866 76.6469 275.455 77.4564 276.035 78.2731L276.442 77.9836L276.85 77.6942C276.266 76.8712 275.672 76.0553 275.069 75.2468L274.668 75.5457ZM277.594 79.6328L277.182 79.9158C277.748 80.7409 278.305 81.573 278.853 82.4119L279.272 82.1386L279.69 81.8654C279.139 81.0199 278.577 80.1813 278.006 79.3498L277.594 79.6328ZM280.357 83.8312L279.934 84.0978C280.468 84.9447 280.992 85.7983 281.507 86.6585L281.936 86.4019L282.365 86.1453C281.847 85.2783 281.318 84.418 280.78 83.5645L280.357 83.8312ZM282.954 88.1349L282.521 88.3847C283.021 89.2522 283.512 90.1261 283.992 91.0062L284.431 90.7667L284.87 90.5272C284.386 89.6401 283.891 88.7593 283.387 87.885L282.954 88.1349ZM285.379 92.5379L284.937 92.7705C285.402 93.6564 285.858 94.5485 286.303 95.4465L286.751 95.2245L287.199 95.0024C286.75 94.0972 286.291 93.1982 285.822 92.3053L285.379 92.5379ZM287.63 97.0338L287.179 97.2488C287.609 98.1516 288.028 99.0603 288.438 99.9747L288.894 99.7705L289.35 99.5663C288.938 98.6446 288.515 97.7288 288.082 96.8188L287.63 97.0338ZM289.702 101.614L289.242 101.811C289.636 102.73 290.019 103.654 290.392 104.584L290.856 104.398L291.32 104.212C290.945 103.275 290.558 102.343 290.161 101.417L289.702 101.614ZM291.59 106.271L291.123 106.45C291.48 107.384 291.827 108.324 292.163 109.269L292.634 109.101L293.105 108.934C292.767 107.981 292.417 107.034 292.057 106.092L291.59 106.271ZM293.292 110.999L292.819 111.159C293.139 112.108 293.449 113.062 293.748 114.021L294.225 113.872L294.703 113.723C294.401 112.757 294.089 111.796 293.766 110.839L293.292 110.999ZM294.807 115.793L294.328 115.934C294.61 116.894 294.881 117.858 295.142 118.827L295.625 118.697L296.108 118.567C295.845 117.591 295.572 116.619 295.287 115.652L294.807 115.793ZM296.131 120.644L295.647 120.766C295.89 121.735 296.123 122.708 296.345 123.685L296.833 123.574L297.32 123.464C297.097 122.479 296.862 121.498 296.616 120.522L296.131 120.644ZM297.262 125.542L296.773 125.645C296.978 126.622 297.173 127.603 297.355 128.589L297.847 128.498L298.339 128.406C298.154 127.413 297.959 126.424 297.752 125.439L297.262 125.542ZM298.198 130.478L297.705 130.561C297.872 131.547 298.028 132.537 298.172 133.531L298.667 133.459L299.162 133.388C299.017 132.386 298.86 131.388 298.691 130.394L298.198 130.478ZM298.94 135.448L298.444 135.512C298.572 136.505 298.689 137.502 298.794 138.501L299.291 138.449L299.788 138.397C299.682 137.389 299.565 136.385 299.436 135.384L298.94 135.448ZM299.486 140.447L298.988 140.491C299.077 141.486 299.154 142.484 299.22 143.486L299.719 143.453L300.218 143.42C300.152 142.411 300.073 141.405 299.984 140.402L299.486 140.447ZM299.836 145.467L299.337 145.492C299.387 146.487 299.425 147.485 299.452 148.486L299.952 148.472L300.452 148.459C300.425 147.45 300.386 146.444 300.336 145.442L299.836 145.467ZM299.991 150.485L299.491 150.491C299.497 150.993 299.5 151.496 299.5 152H300H300.5C300.5 151.492 300.497 150.986 300.491 150.479L299.991 150.485ZM300 152H299.5C299.5 152.504 299.497 153.007 299.491 153.509L299.991 153.515L300.491 153.521C300.497 153.014 300.5 152.508 300.5 152H300ZM299.952 155.528L299.452 155.514C299.425 156.515 299.387 157.513 299.337 158.508L299.836 158.533L300.336 158.558C300.386 157.556 300.425 156.55 300.452 155.541L299.952 155.528ZM299.719 160.547L299.22 160.514C299.154 161.516 299.077 162.514 298.988 163.509L299.486 163.553L299.984 163.598C300.073 162.595 300.152 161.589 300.218 160.58L299.719 160.547ZM299.291 165.551L298.794 165.499C298.689 166.499 298.572 167.495 298.444 168.488L298.94 168.552L299.436 168.616C299.565 167.615 299.682 166.611 299.788 165.603L299.291 165.551ZM298.667 170.541L298.172 170.469C298.028 171.463 297.872 172.453 297.705 173.439L298.198 173.522L298.691 173.606C298.86 172.612 299.017 171.614 299.162 170.612L298.667 170.541ZM297.847 175.503L297.355 175.411C297.173 176.397 296.978 177.378 296.773 178.355L297.262 178.458L297.752 178.561C297.959 177.576 298.154 176.587 298.339 175.594L297.847 175.503ZM296.832 180.426L296.345 180.315C296.123 181.292 295.89 182.265 295.647 183.234L296.131 183.356L296.616 183.478C296.862 182.502 297.097 181.521 297.32 180.536L296.832 180.426ZM295.625 185.303L295.142 185.173C294.881 186.142 294.61 187.106 294.328 188.066L294.807 188.207L295.287 188.348C295.572 187.381 295.845 186.409 296.108 185.433L295.625 185.303ZM294.225 190.128L293.748 189.979C293.449 190.938 293.139 191.892 292.819 192.841L293.292 193.001L293.766 193.161C294.089 192.204 294.401 191.243 294.703 190.277L294.225 190.128ZM292.634 194.899L292.163 194.731C291.827 195.676 291.48 196.616 291.123 197.55L291.59 197.729L292.057 197.908C292.417 196.966 292.767 196.019 293.105 195.066L292.634 194.899ZM290.856 199.602L290.392 199.416C290.019 200.346 289.636 201.27 289.242 202.189L289.702 202.386L290.161 202.583C290.558 201.657 290.945 200.725 291.32 199.788L290.856 199.602ZM288.894 204.23L288.438 204.025C288.028 204.94 287.609 205.848 287.179 206.751L287.63 206.966L288.082 207.181C288.515 206.271 288.938 205.355 289.35 204.434L288.894 204.23ZM286.751 208.776L286.303 208.554C285.858 209.452 285.402 210.344 284.937 211.23L285.379 211.462L285.822 211.695C286.291 210.802 286.75 209.903 287.199 208.998L286.751 208.776ZM284.431 213.233L283.992 212.994C283.512 213.874 283.021 214.748 282.521 215.615L282.954 215.865L283.387 216.115C283.891 215.241 284.386 214.36 284.87 213.473L284.431 213.233ZM281.936 217.598L281.507 217.342C280.992 218.202 280.468 219.055 279.934 219.902L280.357 220.169L280.78 220.436C281.318 219.582 281.847 218.722 282.365 217.855L281.936 217.598ZM279.272 221.861L278.853 221.588C278.305 222.427 277.748 223.259 277.182 224.084L277.594 224.367L278.006 224.65C278.577 223.819 279.138 222.98 279.69 222.135L279.272 221.861ZM276.442 226.016L276.035 225.727C275.455 226.544 274.866 227.353 274.267 228.155L274.668 228.454L275.069 228.753C275.672 227.945 276.266 227.129 276.85 226.306L276.442 226.016ZM273.453 230.057L273.057 229.752C272.445 230.546 271.825 231.332 271.195 232.11L271.584 232.425L271.973 232.739C272.607 231.954 273.233 231.162 273.849 230.362L273.453 230.057ZM270.308 233.978L269.924 233.658C269.282 234.427 268.631 235.188 267.971 235.942L268.348 236.271L268.724 236.6C269.389 235.841 270.045 235.074 270.692 234.298L270.308 233.978ZM267.012 237.773L266.641 237.438C265.969 238.181 265.289 238.917 264.601 239.644L264.964 239.988L265.327 240.332C266.021 239.599 266.706 238.858 267.383 238.108L267.012 237.773ZM263.57 241.437L263.212 241.088C262.512 241.804 261.804 242.512 261.088 243.212L261.437 243.57L261.786 243.927C262.508 243.222 263.222 242.508 263.927 241.786L263.57 241.437ZM259.988 244.964L259.644 244.601C258.917 245.289 258.181 245.969 257.438 246.641L257.773 247.012L258.108 247.383C258.858 246.706 259.599 246.021 260.331 245.327L259.988 244.964ZM256.271 248.348L255.942 247.971C255.188 248.631 254.427 249.282 253.658 249.924L253.978 250.308L254.298 250.692C255.073 250.045 255.841 249.389 256.6 248.724L256.271 248.348ZM252.425 251.584L252.11 251.195C251.332 251.825 250.546 252.445 249.752 253.057L250.057 253.453L250.362 253.849C251.162 253.233 251.954 252.607 252.739 251.973L252.425 251.584ZM248.454 254.668L248.155 254.267C247.353 254.866 246.544 255.455 245.727 256.035L246.016 256.442L246.306 256.85C247.129 256.266 247.945 255.672 248.753 255.069L248.454 254.668ZM244.367 257.594L244.084 257.182C243.259 257.748 242.427 258.305 241.588 258.853L241.861 259.272L242.135 259.69C242.98 259.139 243.819 258.577 244.65 258.006L244.367 257.594ZM240.169 260.357L239.902 259.934C239.055 260.468 238.202 260.992 237.342 261.507L237.598 261.936L237.855 262.365C238.722 261.847 239.582 261.318 240.436 260.78L240.169 260.357ZM235.865 262.954L235.615 262.521C234.748 263.021 233.874 263.512 232.994 263.992L233.233 264.431L233.473 264.87C234.36 264.386 235.241 263.891 236.115 263.387L235.865 262.954ZM231.462 265.379L231.23 264.937C230.344 265.402 229.452 265.858 228.553 266.303L228.776 266.751L228.998 267.199C229.903 266.75 230.802 266.291 231.695 265.822L231.462 265.379ZM226.966 267.63L226.751 267.179C225.848 267.609 224.94 268.028 224.025 268.438L224.23 268.894L224.434 269.35C225.355 268.938 226.271 268.515 227.181 268.082L226.966 267.63ZM222.386 269.702L222.189 269.242C221.27 269.636 220.346 270.019 219.416 270.392L219.602 270.856L219.788 271.32C220.725 270.945 221.657 270.558 222.583 270.161L222.386 269.702ZM217.729 271.59L217.55 271.123C216.616 271.48 215.676 271.827 214.731 272.163L214.899 272.634L215.066 273.105C216.019 272.767 216.966 272.417 217.908 272.057L217.729 271.59ZM213.001 273.292L212.841 272.819C211.892 273.139 210.938 273.449 209.979 273.748L210.128 274.225L210.277 274.703C211.243 274.401 212.204 274.089 213.161 273.766L213.001 273.292ZM208.207 274.807L208.066 274.328C207.106 274.61 206.142 274.881 205.173 275.142L205.303 275.625L205.433 276.108C206.409 275.845 207.381 275.572 208.348 275.287L208.207 274.807ZM203.356 276.131L203.234 275.647C202.265 275.89 201.292 276.123 200.315 276.345L200.426 276.833L200.536 277.32C201.521 277.097 202.502 276.862 203.478 276.616L203.356 276.131ZM198.458 277.262L198.355 276.773C197.378 276.978 196.396 277.173 195.411 277.355L195.502 277.847L195.594 278.339C196.587 278.154 197.576 277.959 198.561 277.752L198.458 277.262ZM193.522 278.198L193.439 277.705C192.453 277.872 191.463 278.028 190.469 278.172L190.541 278.667L190.612 279.162C191.614 279.017 192.612 278.86 193.606 278.691L193.522 278.198ZM188.552 278.94L188.488 278.444C187.495 278.572 186.498 278.689 185.499 278.794L185.551 279.291L185.603 279.788C186.611 279.682 187.615 279.565 188.616 279.436L188.552 278.94ZM183.553 279.486L183.509 278.988C182.514 279.077 181.516 279.154 180.514 279.22L180.547 279.719L180.58 280.218C181.589 280.152 182.595 280.073 183.598 279.984L183.553 279.486ZM178.533 279.836L178.508 279.337C177.513 279.387 176.515 279.425 175.514 279.452L175.528 279.952L175.541 280.452C176.55 280.425 177.556 280.386 178.558 280.336L178.533 279.836ZM173.515 279.991L173.509 279.491C173.007 279.497 172.504 279.5 172 279.5V280V280.5C172.508 280.5 173.014 280.497 173.521 280.491L173.515 279.991ZM172 280V279C171.498 279 170.997 278.997 170.497 278.991L170.485 279.991L170.474 280.991C170.982 280.997 171.491 281 172 281V280ZM168.472 279.952L168.499 278.953C167.502 278.926 166.508 278.887 165.517 278.837L165.467 279.836L165.417 280.835C166.423 280.885 167.433 280.925 168.445 280.952L168.472 279.952ZM163.453 279.719L163.519 278.721C162.521 278.656 161.527 278.578 160.536 278.49L160.447 279.486L160.358 280.482C161.364 280.572 162.374 280.65 163.387 280.717L163.453 279.719ZM158.449 279.291L158.554 278.297C157.558 278.192 156.565 278.076 155.576 277.948L155.448 278.94L155.32 279.931C156.325 280.061 157.333 280.179 158.344 280.286L158.449 279.291ZM153.459 278.667L153.603 277.677C152.613 277.534 151.627 277.379 150.645 277.212L150.478 278.198L150.311 279.184C151.309 279.353 152.31 279.511 153.316 279.657L153.459 278.667ZM148.497 277.847L148.68 276.864C147.699 276.682 146.721 276.488 145.748 276.284L145.542 277.262L145.337 278.241C146.325 278.449 147.318 278.645 148.315 278.83L148.497 277.847ZM143.574 276.832L143.796 275.857C142.822 275.637 141.853 275.405 140.888 275.162L140.644 276.131L140.4 277.101C141.38 277.348 142.365 277.584 143.353 277.808L143.574 276.832ZM138.697 275.625L138.956 274.659C137.991 274.4 137.031 274.129 136.075 273.848L135.793 274.807L135.51 275.766C136.481 276.052 137.457 276.327 138.437 276.59L138.697 275.625ZM133.872 274.225L134.169 273.27C133.215 272.973 132.265 272.664 131.32 272.345L130.999 273.292L130.679 274.24C131.639 274.564 132.604 274.878 133.574 275.18L133.872 274.225ZM129.101 272.634L129.436 271.692C128.495 271.357 127.559 271.012 126.628 270.656L126.271 271.59L125.914 272.524C126.859 272.885 127.81 273.236 128.766 273.576L129.101 272.634ZM124.398 270.856L124.77 269.928C123.844 269.557 122.923 269.175 122.008 268.782L121.614 269.702L121.22 270.621C122.15 271.019 123.085 271.407 124.026 271.784L124.398 270.856ZM119.77 268.894L120.179 267.981C119.268 267.574 118.363 267.156 117.464 266.727L117.034 267.63L116.604 268.533C117.517 268.968 118.437 269.393 119.362 269.807L119.77 268.894ZM115.224 266.751L115.669 265.855C114.774 265.412 113.885 264.958 113.003 264.494L112.538 265.379L112.073 266.265C112.969 266.736 113.872 267.197 114.78 267.647L115.224 266.751ZM110.767 264.431L111.246 263.553C110.369 263.075 109.499 262.586 108.635 262.088L108.135 262.954L107.635 263.82C108.513 264.326 109.397 264.823 110.288 265.309L110.767 264.431ZM106.402 261.936L106.915 261.078C106.058 260.565 105.208 260.043 104.364 259.511L103.831 260.357L103.298 261.203C104.155 261.743 105.018 262.274 105.889 262.794L106.402 261.936ZM102.139 259.272L102.685 258.434C101.849 257.889 101.021 257.334 100.199 256.77L99.6328 257.594L99.0667 258.418C99.9015 258.991 100.743 259.555 101.592 260.109L102.139 259.272ZM97.9836 256.442L98.5625 255.627C97.7491 255.049 96.9427 254.463 96.1436 253.867L95.5457 254.668L94.9478 255.47C95.7594 256.075 96.5785 256.671 97.4047 257.258L97.9836 256.442ZM93.9428 253.453L94.5531 252.661C93.7627 252.052 92.9797 251.434 92.2042 250.807L91.5754 251.584L90.9467 252.362C91.7343 252.999 92.5296 253.626 93.3324 254.245L93.9428 253.453ZM90.022 250.308L90.6628 249.54C89.8968 248.901 89.1384 248.252 88.3878 247.595L87.7291 248.348L87.0704 249.1C87.8328 249.767 88.6031 250.426 89.3811 251.075L90.022 250.308ZM86.2267 247.012L86.897 246.27C86.1566 245.601 85.4242 244.923 84.6998 244.237L84.0122 244.964L83.3247 245.69C84.0604 246.386 84.8044 247.074 85.5564 247.754L86.2267 247.012ZM82.5629 243.57L83.2617 242.854C82.5481 242.157 81.8426 241.452 81.1456 240.738L80.4302 241.437L79.7149 242.136C80.4229 242.861 81.1393 243.577 81.8641 244.285L82.5629 243.57ZM79.0364 239.988L79.7625 239.3C79.0767 238.576 78.3993 237.843 77.7304 237.103L76.9884 237.773L76.2463 238.444C76.9256 239.196 77.6136 239.94 78.3102 240.675L79.0364 239.988ZM75.6523 236.271L76.4048 235.612C75.7477 234.862 75.0994 234.103 74.4599 233.337L73.6922 233.978L72.9246 234.619C73.5741 235.397 74.2326 236.167 74.8999 236.93L75.6523 236.271ZM72.4159 232.425L73.1935 231.796C72.5664 231.02 71.9482 230.237 71.3392 229.447L70.5471 230.057L69.7549 230.668C70.3735 231.47 71.0014 232.266 71.6383 233.053L72.4159 232.425ZM69.3319 228.454L70.1334 227.856C69.5374 227.057 68.9505 226.251 68.373 225.437L67.5576 226.016L66.7422 226.595C67.3288 227.421 67.9249 228.241 68.5303 229.052L69.3319 228.454ZM66.4061 224.367L67.2304 223.801C66.6661 222.979 66.1112 222.15 65.5659 221.315L64.7285 221.861L63.891 222.408C64.4449 223.257 65.0085 224.098 65.5817 224.933L66.4061 224.367ZM63.6428 220.169L64.4887 219.636C63.9569 218.792 63.4347 217.942 62.9224 217.085L62.0641 217.598L61.2059 218.111C61.7263 218.982 62.2567 219.845 62.7969 220.702L63.6428 220.169ZM61.0462 215.865L61.9124 215.365C61.414 214.501 60.9255 213.631 60.447 212.754L59.5692 213.233L58.6914 213.712C59.1775 214.603 59.6737 215.487 60.18 216.365L61.0462 215.865ZM58.6205 211.462L59.5057 210.997C59.042 210.115 58.5883 209.226 58.1449 208.331L57.2489 208.776L56.353 209.22C56.8034 210.128 57.2642 211.031 57.7353 211.927L58.6205 211.462ZM56.3697 206.966L57.2726 206.536C56.8443 205.637 56.4263 204.732 56.0187 203.821L55.106 204.23L54.1932 204.638C54.6072 205.563 55.0318 206.483 55.4668 207.396L56.3697 206.966ZM54.2984 202.386L55.2175 201.992C54.8252 201.077 54.4433 200.156 54.0721 199.23L53.1439 199.602L52.2157 199.974C52.5928 200.915 52.9808 201.85 53.3793 202.78L54.2984 202.386ZM52.4103 197.729L53.3443 197.372C52.9882 196.441 52.6427 195.505 52.308 194.564L51.3658 194.899L50.4236 195.234C50.7636 196.19 51.1146 197.141 51.4763 198.086L52.4103 197.729ZM50.7075 193.001L51.6549 192.68C51.3356 191.735 51.0271 190.785 50.7295 189.831L49.7748 190.128L48.8201 190.426C49.1223 191.396 49.4358 192.361 49.7602 193.321L50.7075 193.001ZM49.1928 188.207L50.1521 187.925C49.8708 186.969 49.6004 186.009 49.341 185.043L48.3753 185.303L47.4096 185.563C47.673 186.543 47.9477 187.519 48.2335 188.49L49.1928 188.207ZM47.8685 183.356L48.8383 183.112C48.5953 182.147 48.3635 181.178 48.1427 180.204L47.1675 180.426L46.1923 180.647C46.4165 181.635 46.652 182.62 46.8988 183.6L47.8685 183.356ZM46.7377 178.458L47.7163 178.252C47.5117 177.279 47.3183 176.301 47.1362 175.32L46.153 175.502L45.1698 175.685C45.3548 176.682 45.5512 177.675 45.759 178.663L46.7377 178.458ZM45.8016 173.522L46.7876 173.355C46.6213 172.373 46.4662 171.387 46.3226 170.397L45.333 170.541L44.3433 170.684C44.4892 171.69 44.6467 172.691 44.8157 173.689L45.8016 173.522ZM45.0603 168.552L46.0521 168.424C45.9244 167.435 45.8081 166.442 45.7033 165.446L44.7088 165.551L43.7143 165.656C43.8207 166.667 43.9389 167.675 44.0686 168.68L45.0603 168.552ZM44.5144 163.553L45.5104 163.464C45.4217 162.473 45.3444 161.479 45.2787 160.481L44.2808 160.547L43.283 160.613C43.3498 161.626 43.4283 162.636 43.5183 163.642L44.5144 163.553ZM44.1638 158.533L45.1626 158.483C45.1128 157.492 45.0743 156.498 45.0473 155.501L44.0477 155.528L43.048 155.555C43.0754 156.567 43.1145 157.577 43.1651 158.583L44.1638 158.533ZM44.0088 153.515L45.0087 153.503C45.0029 153.003 45 152.502 45 152H44H43C43 152.509 43.003 153.018 43.0088 153.526L44.0088 153.515ZM44 152H45C45 151.498 45.0029 150.997 45.0087 150.497L44.0088 150.485L43.0088 150.474C43.003 150.982 43 151.491 43 152H44ZM44.0477 148.472L45.0473 148.499C45.0743 147.502 45.1128 146.508 45.1626 145.517L44.1638 145.467L43.1651 145.417C43.1145 146.423 43.0754 147.433 43.048 148.445L44.0477 148.472ZM44.2808 143.453L45.2787 143.519C45.3444 142.521 45.4217 141.527 45.5104 140.536L44.5144 140.447L43.5183 140.358C43.4283 141.364 43.3498 142.374 43.283 143.387L44.2808 143.453ZM44.7088 138.449L45.7033 138.554C45.8081 137.558 45.9244 136.565 46.0521 135.576L45.0603 135.448L44.0686 135.32C43.9389 136.325 43.8207 137.333 43.7143 138.344L44.7088 138.449ZM45.333 133.459L46.3226 133.603C46.4662 132.613 46.6213 131.627 46.7876 130.645L45.8016 130.478L44.8157 130.311C44.6467 131.309 44.4892 132.31 44.3433 133.316L45.333 133.459ZM46.153 128.497L47.1362 128.68C47.3183 127.699 47.5117 126.721 47.7163 125.748L46.7377 125.542L45.759 125.337C45.5512 126.325 45.3548 127.318 45.1698 128.315L46.153 128.497ZM47.1675 123.574L48.1427 123.796C48.3635 122.822 48.5953 121.853 48.8383 120.888L47.8685 120.644L46.8988 120.4C46.652 121.38 46.4165 122.365 46.1923 123.353L47.1675 123.574ZM48.3753 118.697L49.3411 118.956C49.6004 117.991 49.8708 117.031 50.1521 116.075L49.1928 115.793L48.2335 115.51C47.9477 116.481 47.673 117.457 47.4096 118.437L48.3753 118.697ZM49.7748 113.872L50.7295 114.169C51.0271 113.215 51.3356 112.265 51.6549 111.32L50.7076 110.999L49.7602 110.679C49.4358 111.639 49.1223 112.604 48.8201 113.574L49.7748 113.872ZM51.3658 109.101L52.308 109.436C52.6427 108.495 52.9882 107.559 53.3443 106.628L52.4103 106.271L51.4763 105.914C51.1146 106.859 50.7636 107.81 50.4236 108.766L51.3658 109.101ZM53.1439 104.398L54.0721 104.77C54.4433 103.844 54.8252 102.923 55.2175 102.008L54.2984 101.614L53.3793 101.22C52.9808 102.15 52.5928 103.085 52.2157 104.026L53.1439 104.398ZM55.106 99.7705L56.0188 100.179C56.4263 99.2681 56.8443 98.363 57.2726 97.4637L56.3697 97.0338L55.4669 96.6038C55.0318 97.5173 54.6072 98.4368 54.1932 99.362L55.106 99.7705ZM57.2489 95.2244L58.1449 95.6686C58.5883 94.774 59.042 93.8855 59.5057 93.003L58.6205 92.5378L57.7353 92.0726C57.2643 92.969 56.8034 93.8716 56.353 94.7803L57.2489 95.2244ZM59.5692 90.7667L60.447 91.2457C60.9255 90.369 61.414 89.4986 61.9124 88.6345L61.0462 88.1349L60.18 87.6352C59.6737 88.5128 59.1775 89.397 58.6914 90.2876L59.5692 90.7667ZM62.0641 86.4018L62.9224 86.915C63.4347 86.0582 63.9569 85.208 64.4887 84.3644L63.6428 83.8311L62.7969 83.2978C62.2567 84.1547 61.7263 85.0183 61.2059 85.8886L62.0641 86.4018ZM64.7285 82.1386L65.5659 82.6851C66.1113 81.8495 66.6662 81.0207 67.2305 80.1988L66.4061 79.6328L65.5817 79.0667C65.0085 79.9015 64.4449 80.7433 63.891 81.5921L64.7285 82.1386ZM67.5576 77.9836L68.373 78.5625C68.9505 77.7491 69.5374 76.9427 70.1335 76.1436L69.3319 75.5457L68.5303 74.9478C67.9249 75.7594 67.3288 76.5785 66.7422 77.4047L67.5576 77.9836ZM70.5471 73.9428L71.3392 74.5531C71.9483 73.7627 72.5664 72.9797 73.1935 72.2042L72.4159 71.5754L71.6383 70.9467C71.0014 71.7343 70.3736 72.5296 69.755 73.3324L70.5471 73.9428ZM73.6923 70.022L74.4599 70.6628C75.0994 69.8968 75.7478 69.1384 76.4048 68.3878L75.6524 67.7291L74.8999 67.0704C74.2326 67.8328 73.5741 68.6031 72.9246 69.3811L73.6923 70.022ZM76.9884 66.2267L77.7305 66.897C78.3993 66.1566 79.0767 65.4242 79.7626 64.6998L79.0364 64.0122L78.3103 63.3247C77.6137 64.0604 76.9256 64.8044 76.2463 65.5564L76.9884 66.2267ZM80.4303 62.5629L81.1456 63.2617C81.8427 62.5481 82.5481 61.8426 83.2617 61.1456L82.5629 60.4302L81.8642 59.7149C81.1394 60.4229 80.4229 61.1393 79.7149 61.8641L80.4303 62.5629ZM84.0123 59.0364L84.6998 59.7625C85.4242 59.0767 86.1567 58.3993 86.8971 57.7304L86.2267 56.9884L85.5564 56.2463C84.8044 56.9256 84.0605 57.6136 83.3247 58.3102L84.0123 59.0364ZM87.7291 55.6523L88.3878 56.4048C89.1384 55.7477 89.8968 55.0994 90.6628 54.4599L90.022 53.6922L89.3812 52.9246C88.6031 53.5741 87.8328 54.2326 87.0705 54.8999L87.7291 55.6523ZM91.5755 52.4159L92.2042 53.1935C92.9797 52.5664 93.7628 51.9482 94.5532 51.3392L93.9428 50.5471L93.3325 49.7549C92.5297 50.3735 91.7344 51.0014 90.9467 51.6383L91.5755 52.4159ZM95.5457 49.3319L96.1436 50.1334C96.9427 49.5374 97.7491 48.9505 98.5625 48.373L97.9836 47.5576L97.4047 46.7422C96.5785 47.3288 95.7595 47.9249 94.9478 48.5303L95.5457 49.3319ZM99.6328 46.4061L100.199 47.2304C101.021 46.6661 101.85 46.1112 102.685 45.5659L102.139 44.7285L101.592 43.891C100.743 44.4449 99.9015 45.0085 99.0667 45.5817L99.6328 46.4061ZM103.831 43.6428L104.364 44.4887C105.208 43.9569 106.058 43.4347 106.915 42.9224L106.402 42.0641L105.889 41.2059C105.018 41.7263 104.155 42.2567 103.298 42.7969L103.831 43.6428ZM108.135 41.0462L108.635 41.9124C109.499 41.414 110.369 40.9255 111.246 40.447L110.767 39.5692L110.288 38.6914C109.397 39.1775 108.513 39.6737 107.635 40.18L108.135 41.0462ZM112.538 38.6205L113.003 39.5057C113.886 39.042 114.774 38.5883 115.669 38.1449L115.224 37.2489L114.78 36.353C113.872 36.8034 112.969 37.2642 112.073 37.7353L112.538 38.6205ZM117.034 36.3697L117.464 37.2726C118.363 36.8443 119.268 36.4263 120.179 36.0187L119.77 35.106L119.362 34.1932C118.437 34.6072 117.517 35.0318 116.604 35.4668L117.034 36.3697ZM121.614 34.2984L122.008 35.2175C122.923 34.8252 123.844 34.4433 124.77 34.0721L124.398 33.1439L124.026 32.2157C123.085 32.5928 122.15 32.9808 121.22 33.3793L121.614 34.2984ZM126.271 32.4103L126.628 33.3443C127.559 32.9882 128.495 32.6427 129.436 32.308L129.101 31.3658L128.766 30.4236C127.81 30.7636 126.859 31.1146 125.914 31.4763L126.271 32.4103ZM130.999 30.7075L131.32 31.6549C132.265 31.3356 133.215 31.0271 134.17 30.7295L133.872 29.7748L133.574 28.8201C132.604 29.1223 131.639 29.4358 130.679 29.7602L130.999 30.7075ZM135.793 29.1928L136.075 30.1521C137.031 29.8708 137.991 29.6004 138.957 29.341L138.697 28.3753L138.437 27.4096C137.457 27.673 136.481 27.9477 135.51 28.2335L135.793 29.1928ZM140.644 27.8685L140.888 28.8383C141.853 28.5953 142.822 28.3635 143.796 28.1427L143.574 27.1675L143.353 26.1923C142.365 26.4165 141.38 26.652 140.4 26.8988L140.644 27.8685ZM145.542 26.7377L145.748 27.7163C146.721 27.5117 147.699 27.3183 148.68 27.1362L148.498 26.153L148.315 25.1698C147.318 25.3548 146.325 25.5512 145.337 25.759L145.542 26.7377ZM150.478 25.8016L150.645 26.7876C151.627 26.6213 152.613 26.4662 153.603 26.3226L153.459 25.333L153.316 24.3433C152.31 24.4892 151.309 24.6467 150.311 24.8157L150.478 25.8016ZM155.448 25.0603L155.576 26.0521C156.565 25.9244 157.558 25.8081 158.554 25.7033L158.449 24.7088L158.344 23.7143C157.333 23.8207 156.325 23.9389 155.32 24.0686L155.448 25.0603ZM160.447 24.5144L160.536 25.5104C161.527 25.4217 162.521 25.3444 163.519 25.2787L163.453 24.2808L163.387 23.283C162.374 23.3498 161.364 23.4283 160.358 23.5183L160.447 24.5144ZM165.467 24.1638L165.517 25.1626C166.508 25.1128 167.502 25.0743 168.499 25.0473L168.472 24.0477L168.445 23.048C167.433 23.0754 166.423 23.1145 165.417 23.1651L165.467 24.1638ZM170.485 24.0088L170.497 25.0087C170.997 25.0029 171.498 25 172 25V24V23C171.491 23 170.982 23.003 170.474 23.0088L170.485 24.0088ZM172 24V25C172.502 25 173.003 25.0029 173.503 25.0087L173.515 24.0088L173.526 23.0088C173.018 23.003 172.509 23 172 23V24ZM175.528 24.0477L175.501 25.0473C176.498 25.0743 177.492 25.1128 178.483 25.1626L178.533 24.1638L178.583 23.1651C177.577 23.1145 176.567 23.0754 175.555 23.048L175.528 24.0477ZM180.547 24.2808L180.481 25.2787C181.479 25.3444 182.473 25.4217 183.464 25.5104L183.553 24.5144L183.642 23.5183C182.636 23.4283 181.626 23.3498 180.613 23.283L180.547 24.2808ZM185.551 24.7088L185.446 25.7033C186.442 25.8081 187.435 25.9244 188.424 26.0521L188.552 25.0603L188.68 24.0686C187.675 23.9389 186.667 23.8207 185.656 23.7143L185.551 24.7088ZM190.541 25.333L190.397 26.3226C191.387 26.4662 192.373 26.6213 193.355 26.7876L193.522 25.8016L193.689 24.8157C192.691 24.6467 191.69 24.4892 190.684 24.3433L190.541 25.333ZM195.503 26.153L195.32 27.1362C196.301 27.3183 197.279 27.5117 198.252 27.7163L198.458 26.7377L198.663 25.759C197.675 25.5512 196.682 25.3548 195.685 25.1698L195.503 26.153ZM200.426 27.1675L200.204 28.1427C201.178 28.3635 202.147 28.5953 203.112 28.8383L203.356 27.8685L203.6 26.8988C202.62 26.652 201.635 26.4165 200.647 26.1923L200.426 27.1675ZM205.303 28.3753L205.044 29.3411C206.009 29.6004 206.969 29.8708 207.925 30.1521L208.207 29.1928L208.49 28.2335C207.519 27.9477 206.543 27.673 205.563 27.4096L205.303 28.3753ZM210.128 29.7748L209.831 30.7295C210.785 31.0271 211.735 31.3356 212.68 31.6549L213.001 30.7076L213.321 29.7602C212.361 29.4358 211.396 29.1223 210.426 28.8201L210.128 29.7748ZM214.899 31.3658L214.564 32.308C215.505 32.6427 216.441 32.9882 217.372 33.3443L217.729 32.4103L218.086 31.4763C217.141 31.1146 216.19 30.7636 215.234 30.4236L214.899 31.3658ZM219.602 33.1439L219.23 34.0721C220.156 34.4433 221.077 34.8252 221.992 35.2175L222.386 34.2984L222.78 33.3793C221.85 32.9808 220.915 32.5928 219.974 32.2157L219.602 33.1439ZM224.23 35.106L223.821 36.0188C224.732 36.4263 225.637 36.8443 226.536 37.2726L226.966 36.3697L227.396 35.4669C226.483 35.0318 225.563 34.6072 224.638 34.1932L224.23 35.106ZM228.776 37.2489L228.331 38.1449C229.226 38.5883 230.115 39.042 230.997 39.5057L231.462 38.6205L231.927 37.7353C231.031 37.2643 230.128 36.8034 229.22 36.353L228.776 37.2489ZM233.233 39.5692L232.754 40.447C233.631 40.9255 234.501 41.414 235.365 41.9124L235.865 41.0462L236.365 40.18C235.487 39.6737 234.603 39.1775 233.712 38.6914L233.233 39.5692ZM237.598 42.0641L237.085 42.9224C237.942 43.4347 238.792 43.9569 239.636 44.4887L240.169 43.6428L240.702 42.7969C239.845 42.2567 238.982 41.7263 238.111 41.2059L237.598 42.0641ZM241.861 44.7285L241.315 45.5659C242.151 46.1113 242.979 46.6662 243.801 47.2305L244.367 46.4061L244.933 45.5817C244.099 45.0085 243.257 44.4449 242.408 43.891L241.861 44.7285ZM246.016 47.5576L245.438 48.373C246.251 48.9505 247.057 49.5374 247.856 50.1335L248.454 49.3319L249.052 48.5303C248.241 47.9249 247.422 47.3288 246.595 46.7422L246.016 47.5576ZM250.057 50.5471L249.447 51.3392C250.237 51.9483 251.02 52.5664 251.796 53.1935L252.425 52.4159L253.053 51.6383C252.266 51.0014 251.47 50.3736 250.668 49.755L250.057 50.5471ZM253.978 53.6923L253.337 54.4599C254.103 55.0994 254.862 55.7478 255.612 56.4048L256.271 55.6524L256.93 54.8999C256.167 54.2326 255.397 53.5741 254.619 52.9246L253.978 53.6923ZM257.773 56.9884L257.103 57.7305C257.843 58.3993 258.576 59.0767 259.3 59.7626L259.988 59.0364L260.675 58.3103C259.94 57.6137 259.196 56.9256 258.444 56.2463L257.773 56.9884ZM261.437 60.4303L260.738 61.1456C261.452 61.8427 262.157 62.5481 262.854 63.2617L263.57 62.5629L264.285 61.8642C263.577 61.1394 262.861 60.4229 262.136 59.7149L261.437 60.4303ZM264.964 64.0123L264.237 64.6998C264.923 65.4242 265.601 66.1567 266.27 66.8971L267.012 66.2267L267.754 65.5564C267.074 64.8044 266.386 64.0605 265.69 63.3247L264.964 64.0123ZM268.348 67.7291L267.595 68.3878C268.252 69.1384 268.901 69.8968 269.54 70.6628L270.308 70.022L271.075 69.3812C270.426 68.6031 269.767 67.8328 269.1 67.0705L268.348 67.7291ZM271.584 71.5755L270.807 72.2042C271.434 72.9797 272.052 73.7628 272.661 74.5532L273.453 73.9428L274.245 73.3325C273.626 72.5297 272.999 71.7344 272.362 70.9467L271.584 71.5755ZM274.668 75.5457L273.867 76.1436C274.463 76.9427 275.049 77.7491 275.627 78.5625L276.442 77.9836L277.258 77.4047C276.671 76.5785 276.075 75.7595 275.47 74.9478L274.668 75.5457ZM277.594 79.6328L276.77 80.1989C277.334 81.0207 277.889 81.8495 278.434 82.6851L279.272 82.1386L280.109 81.5921C279.555 80.7433 278.991 79.9015 278.418 79.0667L277.594 79.6328ZM280.357 83.8312L279.511 84.3645C280.043 85.208 280.565 86.0583 281.078 86.9151L281.936 86.4019L282.794 85.8886C282.274 85.0183 281.743 84.1547 281.203 83.2978L280.357 83.8312ZM282.954 88.1349L282.088 88.6346C282.586 89.4986 283.075 90.3691 283.553 91.2458L284.431 90.7667L285.309 90.2876C284.823 89.3971 284.326 88.5129 283.82 87.6352L282.954 88.1349ZM285.379 92.5379L284.494 93.0031C284.958 93.8855 285.412 94.7741 285.855 95.6686L286.751 95.2245L287.647 94.7803C287.197 93.8716 286.736 92.969 286.265 92.0727L285.379 92.5379ZM287.63 97.0338L286.727 97.4637C287.156 98.363 287.574 99.2682 287.981 100.179L288.894 99.7705L289.807 99.362C289.393 98.4368 288.968 97.5174 288.533 96.6039L287.63 97.0338ZM289.702 101.614L288.782 102.008C289.175 102.923 289.557 103.844 289.928 104.77L290.856 104.398L291.784 104.026C291.407 103.085 291.019 102.15 290.621 101.22L289.702 101.614ZM291.59 106.271L290.656 106.628C291.012 107.559 291.357 108.495 291.692 109.436L292.634 109.101L293.576 108.766C293.236 107.81 292.885 106.859 292.524 105.914L291.59 106.271ZM293.292 110.999L292.345 111.32C292.664 112.265 292.973 113.215 293.271 114.17L294.225 113.872L295.18 113.574C294.878 112.604 294.564 111.639 294.24 110.679L293.292 110.999ZM294.807 115.793L293.848 116.075C294.129 117.031 294.4 117.991 294.659 118.957L295.625 118.697L296.59 118.437C296.327 117.457 296.052 116.481 295.766 115.51L294.807 115.793ZM296.131 120.644L295.162 120.888C295.405 121.853 295.637 122.822 295.857 123.796L296.833 123.574L297.808 123.353C297.584 122.365 297.348 121.38 297.101 120.4L296.131 120.644ZM297.262 125.542L296.284 125.748C296.488 126.721 296.682 127.699 296.864 128.68L297.847 128.498L298.83 128.315C298.645 127.318 298.449 126.325 298.241 125.337L297.262 125.542ZM298.198 130.478L297.212 130.645C297.379 131.627 297.534 132.613 297.677 133.603L298.667 133.459L299.657 133.316C299.511 132.31 299.353 131.309 299.184 130.311L298.198 130.478ZM298.94 135.448L297.948 135.576C298.076 136.565 298.192 137.558 298.297 138.554L299.291 138.449L300.286 138.344C300.179 137.333 300.061 136.325 299.931 135.32L298.94 135.448ZM299.486 140.447L298.49 140.536C298.578 141.527 298.656 142.521 298.721 143.519L299.719 143.453L300.717 143.387C300.65 142.374 300.572 141.364 300.482 140.358L299.486 140.447ZM299.836 145.467L298.837 145.517C298.887 146.508 298.926 147.502 298.953 148.499L299.952 148.472L300.952 148.445C300.925 147.433 300.885 146.423 300.835 145.417L299.836 145.467ZM299.991 150.485L298.991 150.497C298.997 150.997 299 151.498 299 152H300H301C301 151.491 300.997 150.982 300.991 150.474L299.991 150.485ZM300 152H299C299 152.502 298.997 153.003 298.991 153.503L299.991 153.515L300.991 153.526C300.997 153.018 301 152.509 301 152H300ZM299.952 155.528L298.953 155.501C298.926 156.498 298.887 157.492 298.837 158.483L299.836 158.533L300.835 158.583C300.885 157.577 300.925 156.567 300.952 155.555L299.952 155.528ZM299.719 160.547L298.721 160.481C298.656 161.479 298.578 162.473 298.49 163.464L299.486 163.553L300.482 163.642C300.572 162.636 300.65 161.626 300.717 160.613L299.719 160.547ZM299.291 165.551L298.297 165.446C298.192 166.442 298.076 167.435 297.948 168.424L298.94 168.552L299.931 168.68C300.061 167.675 300.179 166.667 300.286 165.656L299.291 165.551ZM298.667 170.541L297.677 170.397C297.534 171.387 297.379 172.373 297.212 173.355L298.198 173.522L299.184 173.689C299.353 172.691 299.511 171.69 299.657 170.684L298.667 170.541ZM297.847 175.503L296.864 175.32C296.682 176.301 296.488 177.279 296.284 178.252L297.262 178.458L298.241 178.663C298.449 177.675 298.645 176.682 298.83 175.685L297.847 175.503ZM296.832 180.426L295.857 180.204C295.637 181.178 295.405 182.147 295.162 183.112L296.131 183.356L297.101 183.6C297.348 182.62 297.584 181.635 297.808 180.647L296.832 180.426ZM295.625 185.303L294.659 185.044C294.4 186.009 294.129 186.969 293.848 187.925L294.807 188.207L295.766 188.49C296.052 187.519 296.327 186.543 296.59 185.563L295.625 185.303ZM294.225 190.128L293.27 189.831C292.973 190.785 292.664 191.735 292.345 192.68L293.292 193.001L294.24 193.321C294.564 192.361 294.878 191.396 295.18 190.426L294.225 190.128ZM292.634 194.899L291.692 194.564C291.357 195.505 291.012 196.441 290.656 197.372L291.59 197.729L292.524 198.086C292.885 197.141 293.236 196.19 293.576 195.234L292.634 194.899ZM290.856 199.602L289.928 199.23C289.557 200.156 289.175 201.077 288.782 201.992L289.702 202.386L290.621 202.78C291.019 201.85 291.407 200.915 291.784 199.974L290.856 199.602ZM288.894 204.23L287.981 203.821C287.574 204.732 287.156 205.637 286.727 206.536L287.63 206.966L288.533 207.396C288.968 206.483 289.393 205.563 289.807 204.638L288.894 204.23ZM286.751 208.776L285.855 208.331C285.412 209.226 284.958 210.115 284.494 210.997L285.379 211.462L286.265 211.927C286.736 211.031 287.197 210.128 287.647 209.22L286.751 208.776ZM284.431 213.233L283.553 212.754C283.075 213.631 282.586 214.501 282.088 215.365L282.954 215.865L283.82 216.365C284.326 215.487 284.823 214.603 285.309 213.712L284.431 213.233ZM281.936 217.598L281.078 217.085C280.565 217.942 280.043 218.792 279.511 219.636L280.357 220.169L281.203 220.702C281.743 219.845 282.274 218.982 282.794 218.111L281.936 217.598ZM279.272 221.861L278.434 221.315C277.889 222.151 277.334 222.979 276.77 223.801L277.594 224.367L278.418 224.933C278.991 224.099 279.555 223.257 280.109 222.408L279.272 221.861ZM276.442 226.016L275.627 225.438C275.049 226.251 274.463 227.057 273.867 227.856L274.668 228.454L275.47 229.052C276.075 228.241 276.671 227.422 277.258 226.595L276.442 226.016ZM273.453 230.057L272.661 229.447C272.052 230.237 271.434 231.02 270.807 231.796L271.584 232.425L272.362 233.053C272.999 232.266 273.626 231.47 274.245 230.668L273.453 230.057ZM270.308 233.978L269.54 233.337C268.901 234.103 268.252 234.862 267.595 235.612L268.348 236.271L269.1 236.93C269.767 236.167 270.426 235.397 271.075 234.619L270.308 233.978ZM267.012 237.773L266.27 237.103C265.601 237.843 264.923 238.576 264.237 239.3L264.964 239.988L265.69 240.675C266.386 239.94 267.074 239.196 267.754 238.444L267.012 237.773ZM263.57 241.437L262.854 240.738C262.157 241.452 261.452 242.157 260.738 242.854L261.437 243.57L262.136 244.285C262.861 243.577 263.577 242.861 264.285 242.136L263.57 241.437ZM259.988 244.964L259.3 244.237C258.576 244.923 257.843 245.601 257.103 246.27L257.773 247.012L258.444 247.754C259.196 247.074 259.94 246.386 260.675 245.69L259.988 244.964ZM256.271 248.348L255.612 247.595C254.862 248.252 254.103 248.901 253.337 249.54L253.978 250.308L254.619 251.075C255.397 250.426 256.167 249.767 256.93 249.1L256.271 248.348ZM252.425 251.584L251.796 250.807C251.02 251.434 250.237 252.052 249.447 252.661L250.057 253.453L250.668 254.245C251.47 253.626 252.266 252.999 253.053 252.362L252.425 251.584ZM248.454 254.668L247.856 253.867C247.057 254.463 246.251 255.049 245.437 255.627L246.016 256.442L246.595 257.258C247.421 256.671 248.241 256.075 249.052 255.47L248.454 254.668ZM244.367 257.594L243.801 256.77C242.979 257.334 242.15 257.889 241.315 258.434L241.861 259.272L242.408 260.109C243.257 259.555 244.098 258.991 244.933 258.418L244.367 257.594ZM240.169 260.357L239.636 259.511C238.792 260.043 237.942 260.565 237.085 261.078L237.598 261.936L238.111 262.794C238.982 262.274 239.845 261.743 240.702 261.203L240.169 260.357ZM235.865 262.954L235.365 262.088C234.501 262.586 233.631 263.075 232.754 263.553L233.233 264.431L233.712 265.309C234.603 264.823 235.487 264.326 236.365 263.82L235.865 262.954ZM231.462 265.379L230.997 264.494C230.115 264.958 229.226 265.412 228.331 265.855L228.776 266.751L229.22 267.647C230.128 267.197 231.031 266.736 231.927 266.265L231.462 265.379ZM226.966 267.63L226.536 266.727C225.637 267.156 224.732 267.574 223.821 267.981L224.23 268.894L224.638 269.807C225.563 269.393 226.483 268.968 227.396 268.533L226.966 267.63ZM222.386 269.702L221.992 268.782C221.077 269.175 220.156 269.557 219.23 269.928L219.602 270.856L219.974 271.784C220.915 271.407 221.85 271.019 222.78 270.621L222.386 269.702ZM217.729 271.59L217.372 270.656C216.441 271.012 215.505 271.357 214.564 271.692L214.899 272.634L215.234 273.576C216.19 273.236 217.141 272.885 218.086 272.524L217.729 271.59ZM213.001 273.292L212.68 272.345C211.735 272.664 210.785 272.973 209.831 273.271L210.128 274.225L210.426 275.18C211.396 274.878 212.361 274.564 213.321 274.24L213.001 273.292ZM208.207 274.807L207.925 273.848C206.969 274.129 206.009 274.4 205.043 274.659L205.303 275.625L205.563 276.59C206.543 276.327 207.519 276.052 208.49 275.766L208.207 274.807ZM203.356 276.131L203.112 275.162C202.147 275.405 201.178 275.637 200.204 275.857L200.426 276.833L200.647 277.808C201.635 277.584 202.62 277.348 203.6 277.101L203.356 276.131ZM198.458 277.262L198.252 276.284C197.279 276.488 196.301 276.682 195.32 276.864L195.502 277.847L195.685 278.83C196.682 278.645 197.675 278.449 198.663 278.241L198.458 277.262ZM193.522 278.198L193.355 277.212C192.373 277.379 191.387 277.534 190.397 277.677L190.541 278.667L190.684 279.657C191.69 279.511 192.691 279.353 193.689 279.184L193.522 278.198ZM188.552 278.94L188.424 277.948C187.435 278.076 186.442 278.192 185.446 278.297L185.551 279.291L185.656 280.286C186.667 280.179 187.675 280.061 188.68 279.931L188.552 278.94ZM183.553 279.486L183.464 278.49C182.473 278.578 181.479 278.656 180.481 278.721L180.547 279.719L180.613 280.717C181.626 280.65 182.636 280.572 183.642 280.482L183.553 279.486ZM178.533 279.836L178.483 278.837C177.492 278.887 176.498 278.926 175.501 278.953L175.528 279.952L175.555 280.952C176.567 280.925 177.577 280.885 178.583 280.835L178.533 279.836ZM173.515 279.991L173.503 278.991C173.003 278.997 172.502 279 172 279V280V281C172.509 281 173.018 280.997 173.526 280.991L173.515 279.991Z" fill="#E5E7EB" mask="url(#path-1-inside-1_136_247)"/>
<rect x="124" y="104" width="96" height="96" rx="48" fill="#FEF2F2"/>
<g filter="url(#filter0_dd_136_247)">
<rect x="140" y="120" width="64" height="64" rx="32" fill="white"/>
<path d="M180.75 148.25L179.188 144.812L175.75 143.25L179.188 141.688L180.75 138.25L182.312 141.688L185.75 143.25L182.312 144.812L180.75 148.25ZM180.75 165.75L179.188 162.312L175.75 160.75L179.188 159.188L180.75 155.75L182.312 159.188L185.75 160.75L182.312 162.312L180.75 165.75ZM168.25 162L165.125 155.125L158.25 152L165.125 148.875L168.25 142L171.375 148.875L178.25 152L171.375 155.125L168.25 162ZM168.25 155.938L169.5 153.25L172.188 152L169.5 150.75L168.25 148.062L167 150.75L164.312 152L167 153.25L168.25 155.938Z" fill="#3B82F6"/>
</g>
<g filter="url(#filter1_dd_136_247)">
<mask id="path-6-inside-2_136_247" fill="white">
<path d="M20 24C20 10.7452 30.7452 0 44 0H162C175.255 0 186 10.7452 186 24V50C186 63.2548 175.255 74 162 74H44C30.7452 74 20 63.2548 20 50V24Z"/>
</mask>
<path d="M20 24C20 10.7452 30.7452 0 44 0H162C175.255 0 186 10.7452 186 24V50C186 63.2548 175.255 74 162 74H44C30.7452 74 20 63.2548 20 50V24Z" fill="white"/>
<path d="M44 0V1H162V0V-1H44V0ZM186 24H185V50H186H187V24H186ZM162 74V73H44V74V75H162V74ZM20 50H21V24H20H19V50H20ZM44 74V73C31.2975 73 21 62.7025 21 50H20H19C19 63.8071 30.1929 75 44 75V74ZM186 50H185C185 62.7025 174.703 73 162 73V74V75C175.807 75 187 63.8071 187 50H186ZM162 0V1C174.703 1 185 11.2975 185 24H186H187C187 10.1929 175.807 -1 162 -1V0ZM44 0V-1C30.1929 -1 19 10.1929 19 24H20H21C21 11.2975 31.2975 1 44 1V0Z" fill="#F3F4F6" mask="url(#path-6-inside-2_136_247)"/>
<rect x="37" y="17" width="40" height="40" rx="20" fill="#3B82F6"/>
<path d="M56.9999 38.9444C56.9999 38.9444 56.7973 38.9444 56.3923 38.9444C55.9872 38.9444 55.501 38.6609 54.9339 38.0937C54.3668 37.5266 54.0832 36.838 54.0832 36.0278V30.1944C54.0832 29.3843 54.3668 28.6956 54.9339 28.1285C55.501 27.5613 56.1897 27.2778 56.9999 27.2778C57.8101 27.2778 58.4987 27.5613 59.0659 28.1285C59.633 28.6956 59.9166 29.3843 59.9166 30.1944V36.0278C59.9166 36.838 59.633 37.5266 59.0659 38.0937C58.4987 38.6609 57.8101 38.9444 56.9999 38.9444ZM56.0277 45.75V42.7604C54.3425 42.5336 52.949 41.7801 51.8471 40.5C50.7453 39.2199 50.1943 37.7292 50.1943 36.0278H52.1388C52.1388 37.3727 52.6127 38.5191 53.5607 39.467C54.5086 40.4149 55.655 40.8889 56.9999 40.8889C58.3448 40.8889 59.4912 40.4149 60.4391 39.467C61.387 38.5191 61.861 37.3727 61.861 36.0278H63.8054C63.8054 37.7292 63.2545 39.2199 62.1527 40.5C61.0508 41.7801 59.6573 42.5336 57.9721 42.7604V45.75H56.0277ZM56.9999 37C56.9999 37 57.0688 37 57.2065 37C57.3442 37 57.5063 36.9068 57.6926 36.7205C57.8789 36.5341 57.9721 36.3032 57.9721 36.0278V30.1944C57.9721 29.919 57.8789 29.6881 57.6926 29.5017C57.5063 29.3154 57.2754 29.2222 56.9999 29.2222C56.7244 29.2222 56.4935 29.3154 56.3072 29.5017C56.1208 29.6881 56.0277 29.919 56.0277 30.1944V36.0278C56.0277 36.3032 56.1208 36.5341 56.3072 36.7205C56.4935 36.9068 56.7244 37 56.9999 37Z" fill="white"/>
<rect x="89" y="26" width="80" height="8" rx="4" fill="#E5E7EB"/>
<rect x="89" y="40" width="48" height="8" rx="4" fill="#F3F4F6"/>
</g>
<g filter="url(#filter2_d_136_247)">
<mask id="path-12-inside-3_136_247" fill="white">
<path d="M164 199C164 185.745 174.745 175 188 175H300C313.255 175 324 185.745 324 199V264C324 277.255 313.255 288 300 288H188C174.745 288 164 277.255 164 264V199Z"/>
</mask>
<path d="M164 199C164 185.745 174.745 175 188 175H300C313.255 175 324 185.745 324 199V264C324 277.255 313.255 288 300 288H188C174.745 288 164 277.255 164 264V199Z" fill="white"/>
<path d="M188 175V176H300V175V174H188V175ZM324 199H323V264H324H325V199H324ZM300 288V287H188V288V289H300V288ZM164 264H165V199H164H163V264H164ZM188 288V287C175.297 287 165 276.703 165 264H164H163C163 277.807 174.193 289 188 289V288ZM324 264H323C323 276.703 312.703 287 300 287V288V289C313.807 289 325 277.807 325 264H324ZM300 175V176C312.703 176 323 186.297 323 199H324H325C325 185.193 313.807 174 300 174V175ZM188 175V174C174.193 174 163 185.193 163 199H164H165C165 186.297 175.297 176 188 176V175Z" fill="#F3F4F6" mask="url(#path-12-inside-3_136_247)"/>
<path d="M191.232 208.556L195.149 204.639L194.371 203.861L191.232 207L189.649 205.417L188.871 206.195L191.232 208.556ZM192.01 211.556C191.241 211.556 190.519 211.41 189.843 211.118C189.167 210.826 188.579 210.431 188.079 209.931C187.579 209.431 187.184 208.843 186.892 208.167C186.6 207.491 186.454 206.769 186.454 206C186.454 205.232 186.6 204.509 186.892 203.833C187.184 203.158 187.579 202.57 188.079 202.07C188.579 201.57 189.167 201.174 189.843 200.882C190.519 200.59 191.241 200.445 192.01 200.445C192.778 200.445 193.501 200.59 194.177 200.882C194.852 201.174 195.44 201.57 195.94 202.07C196.44 202.57 196.836 203.158 197.128 203.833C197.42 204.509 197.565 205.232 197.565 206C197.565 206.769 197.42 207.491 197.128 208.167C196.836 208.843 196.44 209.431 195.94 209.931C195.44 210.431 194.852 210.826 194.177 211.118C193.501 211.41 192.778 211.556 192.01 211.556ZM192.01 210.445C193.251 210.445 194.302 210.014 195.163 209.153C196.024 208.292 196.454 207.241 196.454 206C196.454 204.759 196.024 203.708 195.163 202.847C194.302 201.986 193.251 201.556 192.01 201.556C190.769 201.556 189.718 201.986 188.857 202.847C187.996 203.708 187.565 204.759 187.565 206C187.565 207.241 187.996 208.292 188.857 209.153C189.718 210.014 190.769 210.445 192.01 210.445Z" fill="#10B981"/>
<rect x="255" y="203" width="48" height="6" rx="3" fill="#E5E7EB"/>
<rect x="185" y="228" width="56" height="8" rx="4" fill="#F3F4F6"/>
<rect x="271" y="228" width="32" height="8" rx="4" fill="#E5E7EB"/>
<mask id="path-18-inside-4_136_247" fill="white">
<path d="M185 248H303V267H185V248Z"/>
</mask>
<path d="M185 248V249H303V248V247H185V248Z" fill="#F3F4F6" mask="url(#path-18-inside-4_136_247)"/>
<rect x="185" y="257" width="40" height="10" rx="5" fill="#D1D5DB"/>
<rect x="255" y="257" width="48" height="10" rx="5" fill="#3B82F6"/>
</g>
<defs>
<filter id="filter0_dd_136_247" x="128" y="118" width="88" height="88" filterUnits="userSpaceOnUse" color-interpolation-filters="sRGB">
<feFlood flood-opacity="0" result="BackgroundImageFix"/>
<feColorMatrix in="SourceAlpha" type="matrix" values="0 0 0 0 0 0 0 0 0 0 0 0 0 0 0 0 0 0 127 0" result="hardAlpha"/>
<feMorphology radius="4" operator="erode" in="SourceAlpha" result="effect1_dropShadow_136_247"/>
<feOffset dy="4"/>
<feGaussianBlur stdDeviation="3"/>
<feComposite in2="hardAlpha" operator="out"/>
<feColorMatrix type="matrix" values="0 0 0 0 0 0 0 0 0 0 0 0 0 0 0 0 0 0 0.1 0"/>
<feBlend mode="normal" in2="BackgroundImageFix" result="effect1_dropShadow_136_247"/>
<feColorMatrix in="SourceAlpha" type="matrix" values="0 0 0 0 0 0 0 0 0 0 0 0 0 0 0 0 0 0 127 0" result="hardAlpha"/>
<feMorphology radius="3" operator="erode" in="SourceAlpha" result="effect2_dropShadow_136_247"/>
<feOffset dy="10"/>
<feGaussianBlur stdDeviation="7.5"/>
<feComposite in2="hardAlpha" operator="out"/>
<feColorMatrix type="matrix" values="0 0 0 0 0 0 0 0 0 0 0 0 0 0 0 0 0 0 0.1 0"/>
<feBlend mode="normal" in2="effect1_dropShadow_136_247" result="effect2_dropShadow_136_247"/>
<feBlend mode="normal" in="SourceGraphic" in2="effect2_dropShadow_136_247" result="shape"/>
</filter>
<filter id="filter1_dd_136_247" x="0" y="0" width="206" height="114" filterUnits="userSpaceOnUse" color-interpolation-filters="sRGB">
<feFlood flood-opacity="0" result="BackgroundImageFix"/>
<feColorMatrix in="SourceAlpha" type="matrix" values="0 0 0 0 0 0 0 0 0 0 0 0 0 0 0 0 0 0 127 0" result="hardAlpha"/>
<feMorphology radius="6" operator="erode" in="SourceAlpha" result="effect1_dropShadow_136_247"/>
<feOffset dy="8"/>
<feGaussianBlur stdDeviation="5"/>
<feComposite in2="hardAlpha" operator="out"/>
<feColorMatrix type="matrix" values="0 0 0 0 0 0 0 0 0 0 0 0 0 0 0 0 0 0 0.1 0"/>
<feBlend mode="normal" in2="BackgroundImageFix" result="effect1_dropShadow_136_247"/>
<feColorMatrix in="SourceAlpha" type="matrix" values="0 0 0 0 0 0 0 0 0 0 0 0 0 0 0 0 0 0 127 0" result="hardAlpha"/>
<feMorphology radius="5" operator="erode" in="SourceAlpha" result="effect2_dropShadow_136_247"/>
<feOffset dy="20"/>
<feGaussianBlur stdDeviation="12.5"/>
<feComposite in2="hardAlpha" operator="out"/>
<feColorMatrix type="matrix" values="0 0 0 0 0 0 0 0 0 0 0 0 0 0 0 0 0 0 0.1 0"/>
<feBlend mode="normal" in2="effect1_dropShadow_136_247" result="effect2_dropShadow_136_247"/>
<feBlend mode="normal" in="SourceGraphic" in2="effect2_dropShadow_136_247" result="shape"/>
</filter>
<filter id="filter2_d_136_247" x="126" y="162" width="236" height="189" filterUnits="userSpaceOnUse" color-interpolation-filters="sRGB">
<feFlood flood-opacity="0" result="BackgroundImageFix"/>
<feColorMatrix in="SourceAlpha" type="matrix" values="0 0 0 0 0 0 0 0 0 0 0 0 0 0 0 0 0 0 127 0" result="hardAlpha"/>
<feMorphology radius="12" operator="erode" in="SourceAlpha" result="effect1_dropShadow_136_247"/>
<feOffset dy="25"/>
<feGaussianBlur stdDeviation="25"/>
<feComposite in2="hardAlpha" operator="out"/>
<feColorMatrix type="matrix" values="0 0 0 0 0 0 0 0 0 0 0 0 0 0 0 0 0 0 0.25 0"/>
<feBlend mode="normal" in2="BackgroundImageFix" result="effect1_dropShadow_136_247"/>
<feBlend mode="normal" in="SourceGraphic" in2="effect1_dropShadow_136_247" result="shape"/>
</filter>
</defs>
</svg>
