<svg width="15" height="16" viewBox="0 0 15 16" fill="none" xmlns="http://www.w3.org/2000/svg">
<path d="M4.22918 10.7701H5.3395V7.99435H4.22918V10.7701ZM8.67046 10.7701H9.78078V5.21855H8.67046V10.7701ZM6.44982 10.7701H7.56014V9.10467H6.44982V10.7701ZM6.44982 7.99435H7.56014V6.88403H6.44982V7.99435ZM3.11886 12.9908C2.81353 12.9908 2.55214 12.8821 2.3347 12.6646C2.11726 12.4472 2.00854 12.1858 2.00854 11.8805V4.10824C2.00854 3.8029 2.11726 3.54151 2.3347 3.32407C2.55214 3.10664 2.81353 2.99792 3.11886 2.99792H10.8911C11.1964 2.99792 11.4578 3.10664 11.6753 3.32407C11.8927 3.54151 12.0014 3.8029 12.0014 4.10824V11.8805C12.0014 12.1858 11.8927 12.4472 11.6753 12.6646C11.4578 12.8821 11.1964 12.9908 10.8911 12.9908H3.11886ZM3.11886 11.8805H10.8911V4.10824H3.11886V11.8805Z" fill="#2563EB"/>
</svg>
