<svg width="24" height="24" viewBox="0 0 24 24" fill="none" xmlns="http://www.w3.org/2000/svg">
<path d="M12 2.01562C6.46875 2.01562 2.01562 6.46875 2.01562 12C2.01562 17.5312 6.46875 21.9844 12 21.9844C17.5312 21.9844 21.9844 17.5312 21.9844 12C21.9844 6.46875 17.5312 2.01562 12 2.01562ZM15.2344 17.3906L12 15.4688L8.76562 17.3906C8.39062 17.625 7.92188 17.2969 8.01562 16.8281L8.85938 13.1719L6.04688 10.7344C5.71875 10.4531 5.90625 9.89062 6.32812 9.84375L10.0781 9.5625L11.5312 6.09375C11.7188 5.67188 12.2812 5.67188 12.4688 6.09375L13.9219 9.51562L17.6719 9.84375C18.0938 9.89062 18.2812 10.4531 17.9531 10.7344L15.0938 13.1719L15.9375 16.8281C16.0781 17.2969 15.6094 17.625 15.2344 17.3906Z" fill="#FDE047"/>
</svg>
