<svg width="27" height="27" viewBox="0 0 27 27" fill="none" xmlns="http://www.w3.org/2000/svg">
<path d="M13.3828 24.7584C13.6641 24.7584 13.9453 24.735 14.2383 24.7115L14.8945 25.9537C15.0352 26.2584 15.3398 26.4107 15.7031 26.3639C16.0312 26.3053 16.2773 26.0475 16.3242 25.7076L16.5234 24.3131C17.0742 24.1607 17.6133 23.9615 18.1289 23.7389L19.1602 24.6529C19.418 24.899 19.7461 24.9459 20.0742 24.7701C20.3672 24.5943 20.4961 24.2779 20.4258 23.9381L20.1328 22.567C20.5898 22.2389 21.0469 21.8756 21.457 21.4654L22.7344 22.0045C23.0625 22.1451 23.3789 22.0631 23.6367 21.7701C23.8477 21.524 23.8828 21.1842 23.6953 20.8795L22.9453 19.6842C23.2734 19.2271 23.543 18.7232 23.7891 18.1959L25.1953 18.2662C25.5469 18.2896 25.8398 18.0904 25.9453 17.7623C26.0625 17.4342 25.957 17.106 25.6875 16.8951L24.5859 16.0279C24.7266 15.4889 24.8438 14.9146 24.8906 14.3287L26.2148 13.9068C26.5547 13.7896 26.7539 13.5318 26.7539 13.1803C26.7539 12.8287 26.5547 12.5709 26.2148 12.4537L24.8906 12.0318C24.8438 11.4459 24.7266 10.8834 24.5859 10.3326L25.6875 9.46542C25.957 9.25448 26.0625 8.93808 25.9453 8.60995C25.8398 8.28183 25.5469 8.09433 25.1953 8.10605L23.7891 8.16464C23.543 7.6373 23.2734 7.14511 22.9453 6.66464L23.6953 5.48105C23.8711 5.1998 23.8477 4.84823 23.6367 4.60214C23.3789 4.30917 23.0625 4.23886 22.7344 4.36777L21.457 4.89511C21.0469 4.49667 20.5898 4.12167 20.1328 3.80527L20.4258 2.43417C20.4961 2.08261 20.3672 1.7662 20.0742 1.60214C19.7461 1.42636 19.4062 1.46152 19.1602 1.70761L18.1289 2.63339C17.6133 2.39902 17.0625 2.21152 16.5234 2.04745L16.3242 0.676359C16.2773 0.324796 16.0312 0.066984 15.7031 0.00839027C15.3398 -0.0384847 15.0352 0.113859 14.8945 0.395109L14.2383 1.66073C13.9453 1.6373 13.6641 1.61386 13.3828 1.61386C13.0781 1.61386 12.8203 1.6373 12.5156 1.66073L11.8594 0.406828C11.707 0.113859 11.4141 -0.0384847 11.0508 0.00839027C10.7109 0.066984 10.4766 0.324796 10.4297 0.676359L10.2305 2.04745C9.69141 2.21152 9.14062 2.39902 8.61328 2.63339L7.59375 1.71933C7.33594 1.46152 7.00781 1.43808 6.67969 1.60214C6.38672 1.7662 6.25781 2.08261 6.32812 2.44589L6.62109 3.80527C6.16406 4.12167 5.70703 4.49667 5.29688 4.89511L4.01953 4.36777C3.69141 4.23886 3.36328 4.30917 3.11719 4.60214C2.90625 4.84823 2.87109 5.1998 3.05859 5.46933L3.80859 6.66464C3.48047 7.14511 3.21094 7.6373 2.96484 8.16464L1.55859 8.10605C1.20703 8.09433 0.914062 8.28183 0.796875 8.60995C0.691406 8.93808 0.785156 9.25448 1.06641 9.46542L2.16797 10.3326C2.02734 10.8834 1.91016 11.4459 1.875 12.0318L0.539062 12.4537C0.199219 12.5709 0 12.8287 0 13.1803C0 13.5318 0.199219 13.7896 0.539062 13.9068L1.875 14.3287C1.91016 14.9146 2.02734 15.4889 2.16797 16.0279L1.06641 16.8951C0.796875 17.106 0.703125 17.4342 0.796875 17.7623C0.914062 18.0904 1.20703 18.2896 1.55859 18.2662L2.96484 18.1959C3.21094 18.7232 3.48047 19.2271 3.79688 19.6842L3.05859 20.8912C2.87109 21.1725 2.90625 21.524 3.11719 21.7701C3.36328 22.0631 3.69141 22.1451 4.01953 22.0045L5.29688 21.4654C5.70703 21.8756 6.16406 22.2389 6.62109 22.567L6.32812 23.9381C6.26953 24.2779 6.38672 24.5943 6.67969 24.7701C7.00781 24.9459 7.33594 24.899 7.59375 24.6646L8.61328 23.7389C9.14062 23.9615 9.67969 24.1607 10.2305 24.3131L10.4297 25.7076C10.4766 26.0475 10.7109 26.3053 11.0508 26.3639C11.4141 26.4107 11.707 26.2584 11.8594 25.9537L12.5156 24.7115C12.8086 24.735 13.0781 24.7584 13.3828 24.7584ZM16.4766 12.2662C15.9023 10.7662 14.7305 9.94589 13.3594 9.94589C13.1602 9.94589 12.9492 9.96933 12.5859 10.0514L9.41016 4.60214C10.6055 4.05136 11.9531 3.73495 13.3828 3.73495C18.3281 3.73495 22.2422 7.46152 22.6875 12.2662H16.4766ZM4.03125 13.192C4.03125 10.0396 5.50781 7.27402 7.81641 5.55136L11.0156 11.024C10.3945 11.7154 10.1133 12.4537 10.1133 13.2271C10.1133 13.9654 10.3828 14.6685 11.0156 15.3717L7.73438 20.7506C5.47266 19.0279 4.03125 16.2975 4.03125 13.192ZM11.9531 13.2154C11.9531 12.4303 12.6211 11.8092 13.3711 11.8092C14.1562 11.8092 14.8008 12.4303 14.8008 13.2154C14.8008 13.9889 14.1562 14.6334 13.3711 14.6334C12.6328 14.6334 11.9531 13.9889 11.9531 13.2154ZM13.3828 22.6256C11.918 22.6256 10.5469 22.3092 9.31641 21.7232L12.5742 16.3912C12.9258 16.4732 13.1602 16.485 13.3594 16.485C14.7422 16.485 15.9023 15.6529 16.4766 14.106H22.6875C22.2422 18.9107 18.3281 22.6256 13.3828 22.6256Z" fill="black"/>
</svg>
