<svg width="20" height="20" viewBox="0 0 20 20" fill="none" xmlns="http://www.w3.org/2000/svg">
<path d="M4.17969 4.17969H9.17969C9.60938 4.17969 10 3.78906 10 3.32031C10 2.89062 9.60938 2.5 9.17969 2.5H4.17969C3.24219 2.5 2.5 3.24219 2.5 4.17969V15.8203C2.5 16.7578 3.24219 17.5 4.17969 17.5H9.17969C9.60938 17.5 10 17.1094 10 16.6797C10 16.2109 9.60938 15.8203 9.17969 15.8203H4.17969V4.17969ZM17.2266 9.72656L14.8828 7.38281C14.6094 7.10938 14.1797 7.30469 14.1797 7.65625V9.17969H8.32031C7.89062 9.17969 7.5 9.53125 7.5 10C7.5 10.4688 7.89062 10.8203 8.32031 10.8203H14.1797V12.3438C14.1797 12.6953 14.6094 12.8906 14.8828 12.6172L17.1875 10.2734C17.3828 10.1172 17.3828 9.88281 17.2266 9.72656Z" fill="#EF4444"/>
</svg>
