<svg width="304" height="304" viewBox="0 0 304 304" fill="none" xmlns="http://www.w3.org/2000/svg">
<rect x="236" y="56" width="12" height="12" rx="6" fill="#FACC15"/>
<rect opacity="0.6" x="72" y="216" width="16" height="16" rx="8" fill="#C084FC"/>
<mask id="path-3-inside-1_3_390" fill="white">
<path d="M84.1177 84.1222C121.608 46.6319 182.392 46.6319 219.882 84.1222C257.373 121.613 257.373 182.396 219.882 219.887C182.392 257.377 121.608 257.377 84.1177 219.887C46.6274 182.396 46.6274 121.613 84.1177 84.1222Z"/>
</mask>
<path d="M84.1177 84.1222M219.882 219.887M219.882 219.887M84.1177 84.1222M219.882 84.1222M219.882 219.887M84.1177 219.887M84.1177 84.1222M84.1177 219.887L98.2599 205.745C68.58 176.065 68.58 127.944 98.2599 98.2644L84.1177 84.1222L69.9756 69.9801C24.6748 115.281 24.6748 188.728 69.9756 234.029L84.1177 219.887ZM219.882 219.887L205.74 205.745C176.06 235.424 127.94 235.424 98.2599 205.745L84.1177 219.887L69.9756 234.029C115.276 279.33 188.724 279.33 234.024 234.029L219.882 219.887ZM219.882 84.1222L205.74 98.2644C235.42 127.944 235.42 176.065 205.74 205.745L219.882 219.887L234.024 234.029C279.325 188.728 279.325 115.281 234.024 69.9801L219.882 84.1222ZM219.882 84.1222L234.024 69.9801C188.724 24.6793 115.276 24.6793 69.9756 69.9801L84.1177 84.1222L98.2599 98.2644C127.94 68.5845 176.06 68.5845 205.74 98.2644L219.882 84.1222Z" fill="#3B82F6" mask="url(#path-3-inside-1_3_390)"/>
<g filter="url(#filter0_dd_3_390)">
<rect x="72" y="120" width="160" height="64" rx="24" fill="white"/>
<rect x="88" y="136" width="32" height="32" rx="16" fill="#DBEAFE"/>
<path d="M108.074 150.25L107.363 148.637L105.75 147.926L107.363 147.188L108.074 145.574L108.812 147.188L110.426 147.926L108.812 148.637L108.074 150.25ZM103.699 150.551L106.926 152L103.699 153.449L102.25 156.676L100.801 153.449L97.5742 152L100.801 150.551L102.25 147.324L103.699 150.551ZM108.074 153.75L108.812 155.363L110.426 156.074L108.812 156.812L108.074 158.426L107.363 156.812L105.75 156.074L107.363 155.363L108.074 153.75Z" fill="#3B82F6"/>
<rect x="132" y="142" width="64" height="8" rx="4" fill="#E5E7EB"/>
<rect x="132" y="154" width="40" height="8" rx="4" fill="#E5E7EB"/>
</g>
<defs>
<filter id="filter0_dd_3_390" x="60" y="118" width="184" height="88" filterUnits="userSpaceOnUse" color-interpolation-filters="sRGB">
<feFlood flood-opacity="0" result="BackgroundImageFix"/>
<feColorMatrix in="SourceAlpha" type="matrix" values="0 0 0 0 0 0 0 0 0 0 0 0 0 0 0 0 0 0 127 0" result="hardAlpha"/>
<feMorphology radius="4" operator="erode" in="SourceAlpha" result="effect1_dropShadow_3_390"/>
<feOffset dy="4"/>
<feGaussianBlur stdDeviation="3"/>
<feComposite in2="hardAlpha" operator="out"/>
<feColorMatrix type="matrix" values="0 0 0 0 0 0 0 0 0 0 0 0 0 0 0 0 0 0 0.1 0"/>
<feBlend mode="normal" in2="BackgroundImageFix" result="effect1_dropShadow_3_390"/>
<feColorMatrix in="SourceAlpha" type="matrix" values="0 0 0 0 0 0 0 0 0 0 0 0 0 0 0 0 0 0 127 0" result="hardAlpha"/>
<feMorphology radius="3" operator="erode" in="SourceAlpha" result="effect2_dropShadow_3_390"/>
<feOffset dy="10"/>
<feGaussianBlur stdDeviation="7.5"/>
<feComposite in2="hardAlpha" operator="out"/>
<feColorMatrix type="matrix" values="0 0 0 0 0 0 0 0 0 0 0 0 0 0 0 0 0 0 0.1 0"/>
<feBlend mode="normal" in2="effect1_dropShadow_3_390" result="effect2_dropShadow_3_390"/>
<feBlend mode="normal" in="SourceGraphic" in2="effect2_dropShadow_3_390" result="shape"/>
</filter>
</defs>
</svg>
