<svg width="175" height="175" viewBox="0 0 175 175" fill="none" xmlns="http://www.w3.org/2000/svg">
<g filter="url(#filter0_d_5_235)">
<rect x="41.8018" y="11.7773" width="96" height="96" rx="24" transform="rotate(3 41.8018 11.7773)" fill="url(#paint0_linear_5_235)"/>
<path d="M72.5116 75.4707L73.9769 47.5113C73.9769 47.5113 73.9381 48.2519 73.8605 49.7331C73.7829 51.2143 73.6821 53.1365 73.5583 55.4997L72.9303 67.4823C72.8064 69.8456 72.7057 71.7678 72.6281 73.249C72.5504 74.7301 72.5116 75.4707 72.5116 75.4707ZM72.3023 79.4649C71.2039 79.4074 70.2841 78.967 69.5429 78.1438C68.8017 77.3206 68.4599 76.3598 68.5174 75.2614L69.9827 47.302C70.0403 46.2036 70.4807 45.2838 71.3039 44.5426C72.127 43.8014 73.0878 43.4596 74.1863 43.5171L102.146 44.9824C103.244 45.04 104.164 45.4804 104.905 46.3036C105.646 47.1267 105.988 48.0875 105.931 49.1859L105.669 54.1787L101.675 53.9694L101.936 48.9766L73.9769 47.5113L72.5116 75.4707L100.471 76.936L100.733 71.9433L104.727 72.1526L104.465 77.1454C104.408 78.2438 103.967 79.1636 103.144 79.9048C102.321 80.646 101.36 80.9878 100.262 80.9302L72.3023 79.4649ZM88.6978 72.3138C87.5994 72.2563 86.6796 71.8159 85.9384 70.9927C85.1971 70.1695 84.8553 69.2087 84.9129 68.1103L85.5409 56.1277C85.5984 55.0293 86.0388 54.1095 86.862 53.3683C87.6852 52.6271 88.646 52.2853 89.7444 52.3428L103.724 53.0755C104.823 53.133 105.742 53.5734 106.484 54.3966C107.225 55.2198 107.567 56.1806 107.509 57.279L106.881 69.2616C106.823 70.36 106.383 71.2798 105.56 72.021C104.737 72.7622 103.776 73.1041 102.677 73.0465L88.6978 72.3138ZM102.887 69.0523L103.515 57.0697L89.5351 56.337L88.9071 68.3196L102.887 69.0523ZM95.0554 65.638C95.0554 65.638 95.2634 65.6489 95.6795 65.6707C96.0956 65.6925 96.6101 65.4274 97.2231 64.8755C97.8361 64.3235 98.1644 63.6315 98.208 62.7993C98.2517 61.9672 97.9975 61.2446 97.4455 60.6316C96.8936 60.0186 96.2015 59.6903 95.3694 59.6467C94.5373 59.6031 93.8147 59.8572 93.2017 60.4092C92.5887 60.9612 92.2603 61.6532 92.2167 62.4853C92.1731 63.3175 92.4273 64.04 92.9793 64.653C93.5312 65.2661 94.2233 65.5944 95.0554 65.638Z" fill="white"/>
</g>
<g filter="url(#filter1_d_5_235)">
<mask id="path-3-inside-1_5_235" fill="white">
<path d="M111.222 102.227C111.222 93.3907 118.385 86.2273 127.222 86.2273C136.058 86.2273 143.222 93.3907 143.222 102.227C143.222 111.064 136.058 118.227 127.222 118.227C118.385 118.227 111.222 111.064 111.222 102.227Z"/>
</mask>
<path d="M111.222 102.227C111.222 93.3907 118.385 86.2273 127.222 86.2273C136.058 86.2273 143.222 93.3907 143.222 102.227C143.222 111.064 136.058 118.227 127.222 118.227C118.385 118.227 111.222 111.064 111.222 102.227Z" fill="#60A5FA"/>
<path d="M111.222 102.227M143.222 102.227M143.222 102.227M111.222 102.227M127.222 86.2273M143.222 102.227M127.222 118.227M111.222 102.227M127.222 118.227V114.227C120.595 114.227 115.222 108.855 115.222 102.227H111.222H107.222C107.222 113.273 116.176 122.227 127.222 122.227V118.227ZM143.222 102.227H139.222C139.222 108.855 133.849 114.227 127.222 114.227V118.227V122.227C138.268 122.227 147.222 113.273 147.222 102.227H143.222ZM127.222 86.2273V90.2273C133.849 90.2273 139.222 95.5999 139.222 102.227H143.222H147.222C147.222 91.1816 138.268 82.2273 127.222 82.2273V86.2273ZM127.222 86.2273V82.2273C116.176 82.2273 107.222 91.1816 107.222 102.227H111.222H115.222C115.222 95.5999 120.595 90.2273 127.222 90.2273V86.2273Z" fill="#F9FAFB" mask="url(#path-3-inside-1_5_235)"/>
</g>
<defs>
<filter id="filter0_d_5_235" x="-1.22241" y="-1.22266" width="176.893" height="176.893" filterUnits="userSpaceOnUse" color-interpolation-filters="sRGB">
<feFlood flood-opacity="0" result="BackgroundImageFix"/>
<feColorMatrix in="SourceAlpha" type="matrix" values="0 0 0 0 0 0 0 0 0 0 0 0 0 0 0 0 0 0 127 0" result="hardAlpha"/>
<feMorphology radius="12" operator="erode" in="SourceAlpha" result="effect1_dropShadow_5_235"/>
<feOffset dy="25"/>
<feGaussianBlur stdDeviation="25"/>
<feComposite in2="hardAlpha" operator="out"/>
<feColorMatrix type="matrix" values="0 0 0 0 0.231373 0 0 0 0 0.509804 0 0 0 0 0.964706 0 0 0 0.2 0"/>
<feBlend mode="normal" in2="BackgroundImageFix" result="effect1_dropShadow_5_235"/>
<feBlend mode="normal" in="SourceGraphic" in2="effect1_dropShadow_5_235" result="shape"/>
</filter>
<filter id="filter1_d_5_235" x="109.222" y="85.2273" width="36" height="36" filterUnits="userSpaceOnUse" color-interpolation-filters="sRGB">
<feFlood flood-opacity="0" result="BackgroundImageFix"/>
<feColorMatrix in="SourceAlpha" type="matrix" values="0 0 0 0 0 0 0 0 0 0 0 0 0 0 0 0 0 0 127 0" result="hardAlpha"/>
<feOffset dy="1"/>
<feGaussianBlur stdDeviation="1"/>
<feComposite in2="hardAlpha" operator="out"/>
<feColorMatrix type="matrix" values="0 0 0 0 0 0 0 0 0 0 0 0 0 0 0 0 0 0 0.05 0"/>
<feBlend mode="normal" in2="BackgroundImageFix" result="effect1_dropShadow_5_235"/>
<feBlend mode="normal" in="SourceGraphic" in2="effect1_dropShadow_5_235" result="shape"/>
</filter>
<linearGradient id="paint0_linear_5_235" x1="41.8018" y1="107.777" x2="137.802" y2="11.7773" gradientUnits="userSpaceOnUse">
<stop stop-color="#2563EB"/>
<stop offset="1" stop-color="#6366F1"/>
</linearGradient>
</defs>
</svg>
