<svg width="24" height="24" viewBox="0 0 24 24" fill="none" xmlns="http://www.w3.org/2000/svg">
<path d="M12 2.01562C6.46875 2.01562 2.01562 6.46875 2.01562 12C2.01562 17.5312 6.46875 21.9844 12 21.9844C17.5312 21.9844 21.9844 17.5312 21.9844 12C21.9844 6.46875 17.5312 2.01562 12 2.01562ZM12.8906 17.7656V18.1406C12.8906 18.6094 12.4688 18.9844 12 18.9844C11.5312 18.9844 11.1094 18.6094 11.1094 18.1406V17.7188C10.5 17.5312 9.1875 17.1094 8.4375 15.6094C8.20312 15.1406 8.4375 14.625 8.85938 14.4375L8.95312 14.3906C9.375 14.2031 9.79688 14.3906 10.0312 14.7656C10.3594 15.375 10.9688 16.1719 12.1406 16.1719C13.0781 16.1719 14.1094 15.6562 14.1094 14.5312C14.1094 13.5938 13.4531 13.0781 11.8594 12.5156C10.7344 12.1406 8.48438 11.4844 8.48438 9.1875C8.48438 9.09375 8.53125 6.79688 11.1094 6.23438V5.85938C11.1094 5.39062 11.5312 5.01562 12 5.01562C12.4688 5.01562 12.8906 5.39062 12.8906 5.85938V6.23438C13.9688 6.42188 14.625 7.03125 15.0469 7.54688C15.375 7.96875 15.1875 8.625 14.6719 8.85938C14.2969 9 13.9219 8.85938 13.6406 8.57812C13.3594 8.20312 12.8906 7.78125 12.0469 7.78125C11.3438 7.78125 10.2656 8.15625 10.2656 9.1875C10.2656 10.125 11.1094 10.5 12.8906 11.1094C15.2812 11.9062 15.8906 13.125 15.8906 14.5312C15.8906 17.1562 13.4062 17.6719 12.8906 17.7656Z" fill="#16A34A"/>
</svg>
