<svg width="48" height="48" viewBox="0 0 48 48" fill="none" xmlns="http://www.w3.org/2000/svg">
<rect width="48" height="48" rx="24" fill="#FEF2F2"/>
<path d="M23.9899 32.75C23.4551 32.75 22.9974 32.5596 22.6166 32.1788C22.2358 31.798 22.0454 31.3403 22.0454 30.8056C22.0454 30.2708 22.2358 29.8131 22.6166 29.4323C22.9974 29.0515 23.4551 28.8611 23.9899 28.8611C24.5246 28.8611 24.9823 29.0515 25.3631 29.4323C25.7439 29.8131 25.9343 30.2708 25.9343 30.8056C25.9343 31.3403 25.7439 31.798 25.3631 32.1788C24.9823 32.5596 24.5246 32.75 23.9899 32.75ZM22.0454 26.9167V15.25H25.9343V26.9167H22.0454Z" fill="#EF4444"/>
</svg>
