<svg width="24" height="24" viewBox="0 0 24 24" fill="none" xmlns="http://www.w3.org/2000/svg">
<path d="M12 2.01562C6.46875 2.01562 2.01562 6.46875 2.01562 12C2.01562 17.5312 6.46875 21.9844 12 21.9844C17.5312 21.9844 21.9844 17.5312 21.9844 12C21.9844 6.46875 17.5312 2.01562 12 2.01562ZM18.9375 8.01562H15.9844C15.6562 6.75 15.1875 5.53125 14.5781 4.45312C16.4531 5.0625 17.9531 6.32812 18.9375 8.01562ZM12 4.03125C12.8438 5.25 13.5 6.5625 13.9219 8.01562H10.0781C10.5 6.5625 11.1562 5.25 12 4.03125ZM4.26562 14.0156C4.07812 13.3594 3.98438 12.7031 3.98438 12C3.98438 11.2969 4.07812 10.6406 4.26562 9.98438H7.64062C7.54688 10.6406 7.5 11.2969 7.5 12C7.5 12.7031 7.54688 13.3594 7.64062 14.0156H4.26562ZM5.0625 15.9844H8.01562C8.34375 17.25 8.8125 18.4688 9.42188 19.5469C7.54688 18.9375 6.04688 17.6719 5.0625 15.9844ZM8.01562 8.01562H5.0625C6.04688 6.32812 7.54688 5.0625 9.42188 4.45312C8.8125 5.53125 8.34375 6.75 8.01562 8.01562ZM12 19.9688C11.1562 18.75 10.5 17.4375 10.0781 15.9844H13.9219C13.5 17.4375 12.8438 18.75 12 19.9688ZM14.3438 14.0156H9.65625C9.5625 13.3594 9.51562 12.7031 9.51562 12C9.51562 11.2969 9.5625 10.6406 9.65625 9.98438H14.3438C14.4375 10.6406 14.4844 11.2969 14.4844 12C14.4844 12.7031 14.4375 13.3594 14.3438 14.0156ZM14.5781 19.5469C15.1875 18.4688 15.6562 17.25 15.9844 15.9844H18.9375C17.9531 17.6719 16.4531 18.9375 14.5781 19.5469ZM16.3594 14.0156C16.4531 13.3594 16.5 12.7031 16.5 12C16.5 11.2969 16.4531 10.6406 16.3594 9.98438H19.7344C19.9219 10.6406 20.0156 11.2969 20.0156 12C20.0156 12.7031 19.9219 13.3594 19.7344 14.0156H16.3594Z" fill="#9333EA"/>
</svg>
